<?xml version="1.0" encoding="UTF-8"?> <svg xmlns="http://www.w3.org/2000/svg" width="80" height="80" viewBox="0 0 80 80" fill="none"><rect width="80" height="80" rx="3" fill="#4D70C9"></rect><path d="M22.4468 10H57.5532L70 27.5895L40 70L10 27.5895L22.4468 10ZM35.7234 13.1579L30.2979 25.7895H49.7021L44.2766 13.1579H35.7234ZM29.883 28.9474L40 59.7684L50.117 28.9474H29.883ZM15.1702 25.7895H26.8511L32.2766 13.1579H24.0426L15.1702 25.7895ZM14.8511 28.9474L36.617 59.7368L26.5319 28.9474H14.8511ZM64.8298 25.7895L55.9574 13.1579H47.7234L53.1489 25.7895H64.8298ZM65.1489 28.9474H53.4681L43.383 59.7368L65.1489 28.9474Z" fill="white"></path></svg> 