<?xml version="1.0" encoding="UTF-8"?> <svg xmlns="http://www.w3.org/2000/svg" width="40" height="40" viewBox="0 0 40 40" fill="none"><rect width="40" height="40" rx="3" fill="#464451"></rect><path d="M17.375 23.9225L12.695 19.2425C12.52 19.0675 12.305 18.9737 12.05 18.9612C11.795 18.9487 11.5675 19.0425 11.3675 19.2425C11.1675 19.4425 11.0675 19.6637 11.0675 19.9062C11.0675 20.1487 11.1675 20.37 11.3675 20.57L16.3156 25.5162C16.6181 25.82 16.9712 25.9719 17.375 25.9719C17.7787 25.9719 18.1325 25.82 18.4362 25.5162L28.7037 15.2487C28.8787 15.0725 28.9725 14.8569 28.985 14.6019C28.9975 14.3469 28.9037 14.12 28.7037 13.9212C28.5037 13.7225 28.2831 13.6225 28.0419 13.6212C27.8006 13.62 27.5787 13.72 27.3762 13.9212L17.375 23.9225ZM8.03 35C7.16625 35 6.44562 34.7112 5.86812 34.1337C5.29062 33.5562 5.00125 32.835 5 31.97V8.03C5 7.16625 5.28937 6.44562 5.86812 5.86812C6.44687 5.29062 7.1675 5.00125 8.03 5H31.9719C32.8344 5 33.555 5.28937 34.1337 5.86812C34.7125 6.44687 35.0012 7.1675 35 8.03V31.9719C35 32.8344 34.7112 33.555 34.1337 34.1337C33.5562 34.7125 32.835 35.0012 31.97 35H8.03ZM8.03 33.125H31.9719C32.2594 33.125 32.5237 33.005 32.765 32.765C33.0062 32.525 33.1262 32.26 33.125 31.97V8.03C33.125 7.74125 33.005 7.47625 32.765 7.235C32.525 6.99375 32.26 6.87375 31.97 6.875H8.03C7.74125 6.875 7.47625 6.995 7.235 7.235C6.99375 7.475 6.87375 7.74 6.875 8.03V31.9719C6.875 32.2594 6.995 32.5237 7.235 32.765C7.475 33.0062 7.73937 33.1262 8.02812 33.125" fill="white"></path></svg> 