<?xml version="1.0" encoding="UTF-8"?> <svg xmlns="http://www.w3.org/2000/svg" width="80" height="80" viewBox="0 0 80 80" fill="none"><g clip-path="url(#clip0_8_625)"><path d="M77.5006 0.454954C78.0478 -0.12647 78.9636 -0.154332 79.545 0.392831C80.1265 0.940054 80.1543 1.85579 79.6072 2.43725L46.1499 37.984C47.8272 39.6446 48.9806 40.796 49.5723 42.3994L49.5742 42.4041C50.1892 44.0861 50.0347 45.601 49.8406 47.8644C48.8848 58.9801 45.0858 66.9213 41.4953 72.0981C39.7024 74.6831 37.9642 76.5754 36.6638 77.8285C36.0136 78.455 35.4722 78.9224 35.0872 79.2376C34.8947 79.3951 34.7411 79.5146 34.6326 79.5971L34.4669 79.7214C34.4622 79.7248 34.4578 79.7276 34.4547 79.7298C34.4531 79.7309 34.4511 79.7318 34.45 79.7327L34.449 79.7336C34.4483 79.7341 34.4471 79.7346 33.6122 78.5542L34.4471 79.7345C34.1041 79.9771 33.6727 80.0586 33.2649 79.9576C24.4959 77.7856 16.681 73.9513 10.7959 67.0162C4.91401 60.0847 1.09118 50.2099 0.00433951 36.205C-0.0341797 35.7078 0.185663 35.2256 0.586983 34.9296C0.988389 34.6336 1.5145 34.5651 1.97817 34.7489C10.1623 37.9928 18.2821 38.6693 28.5416 34.731C30.9591 33.8043 32.8585 33.0752 34.3869 32.6348C35.8168 32.2227 37.0947 32.0074 38.3063 32.1999L38.5482 32.2442L38.5539 32.2451C39.8074 32.509 40.8782 33.1533 41.9857 34.0523C42.624 34.5705 43.3127 35.2085 44.0876 35.9565L77.5006 0.454954ZM37.9646 35.0764C37.376 34.9552 36.5714 35.0144 35.187 35.4134C33.8057 35.8115 32.0418 36.4844 29.5761 37.4296C19.4932 41.3 11.1944 41.0105 3.09169 38.24C4.36401 50.6087 7.92671 59.1659 13.0004 65.145C18.2287 71.3063 25.1845 74.8755 33.2818 76.9776C33.61 76.7078 34.0834 76.3001 34.658 75.7464C35.839 74.6083 37.4486 72.8601 39.1196 70.4509C42.4571 65.6389 46.0517 58.1727 46.9594 47.6168C47.1678 45.186 47.2106 44.3622 46.8577 43.3972V43.3962C46.5046 42.4427 45.8323 41.7383 43.8363 39.7601L42.7227 38.6607C41.6885 37.646 40.8781 36.8774 40.1634 36.2972C39.2317 35.5409 38.5813 35.2066 37.9646 35.0755V35.0764Z" fill="white"></path><path d="M28.5279 51.623C29.1502 51.236 29.9764 51.3759 30.4339 51.9685C30.9218 52.6005 30.8052 53.508 30.1732 53.9959C24.5786 58.3149 18.9691 59.9417 14.7487 60.4831C12.6405 60.7535 10.877 60.7539 9.63102 60.6845C9.00773 60.6498 8.5123 60.5975 8.16641 60.5528C7.99352 60.5304 7.85757 60.51 7.76167 60.4944C7.7138 60.4866 7.67548 60.4796 7.64778 60.4746C7.6341 60.4722 7.6225 60.4706 7.61389 60.469C7.60988 60.4682 7.60642 60.4677 7.60354 60.4671C7.60202 60.4668 7.60002 60.4664 7.59883 60.4662L7.59789 60.4652C7.59832 60.4594 7.61409 60.3721 7.87086 59.0458C7.88479 58.9738 7.89784 58.9055 7.91039 58.8406L7.59601 60.4652C6.81212 60.3134 6.29966 59.5549 6.45143 58.771C6.60309 57.9881 7.36003 57.4755 8.14288 57.6254C8.14346 57.6255 8.14452 57.6262 8.14571 57.6264H8.14477C8.14698 57.6268 8.15103 57.6274 8.15606 57.6283C8.16955 57.6307 8.19296 57.6352 8.22571 57.6405C8.29189 57.6512 8.39666 57.6666 8.53727 57.6847C8.81887 57.7211 9.244 57.7662 9.79198 57.7967C10.8887 57.8578 12.4728 57.8598 14.3807 57.6151C18.1923 57.1261 23.2919 55.6552 28.4064 51.7068L28.5279 51.623ZM23.5599 19.6521C23.5598 18.6155 23.1482 17.6216 22.4153 16.8886C21.6823 16.1556 20.6883 15.7432 19.6517 15.7431C18.615 15.7431 17.6203 16.1555 16.8872 16.8886C16.1543 17.6216 15.7427 18.6156 15.7427 19.6521C15.7427 20.6889 16.1542 21.6836 16.8872 22.4166C17.6203 23.1496 18.6151 23.5612 19.6517 23.5612C20.6882 23.5611 21.6823 23.1495 22.4153 22.4166C23.1484 21.6836 23.5599 20.6889 23.5599 19.6521ZM34.2696 6.15823V5.72996C34.2696 4.93155 34.917 4.28429 35.7154 4.28418C36.5139 4.28418 37.1612 4.93148 37.1612 5.72996V6.15823C37.1612 6.95671 36.5139 7.60401 35.7154 7.60401C34.917 7.60389 34.2696 6.95664 34.2696 6.15823ZM26.4514 19.6521C26.4514 21.4558 25.7351 23.1857 24.4597 24.4611C23.1845 25.7362 21.4551 26.4526 19.6517 26.4528C17.8482 26.4528 16.1181 25.7363 14.8428 24.4611C13.5675 23.1857 12.8511 21.4558 12.8511 19.6521C12.8511 17.8486 13.5675 16.1186 14.8428 14.8432C16.1181 13.5681 17.8482 12.8515 19.6517 12.8515C21.4551 12.8516 23.1845 13.5682 24.4597 14.8432C25.735 16.1186 26.4514 17.8486 26.4514 19.6521Z" fill="white"></path></g><defs><clipPath id="clip0_8_625"><rect width="80" height="80" fill="white"></rect></clipPath></defs></svg> 