<?xml version="1.0" encoding="UTF-8"?> <svg xmlns="http://www.w3.org/2000/svg" width="80" height="80" viewBox="0 0 80 80" fill="none"><g clip-path="url(#clip0_8_617)"><path d="M80.0667 40.1253C79.73 41.6852 79.2721 43.1927 78.2873 44.4912C76.8759 46.3543 75.0421 47.5775 72.7442 48.0061C72.1169 48.1253 71.9078 48.3971 71.7949 48.9742C70.8749 53.7311 69.8775 58.4713 68.9993 63.2366C68.211 67.5105 65.8315 70.2684 61.6266 71.4268C61.5607 71.454 61.4977 71.4877 61.4384 71.5272C61.4384 73.4509 61.4384 75.4038 61.4384 77.3568C61.4384 78.6301 61.0202 79.0462 59.7531 79.0567C58.8665 79.0651 57.98 79.0651 57.0934 79.0567C56.0479 79.0567 55.7343 78.8288 55.3621 77.8272C54.6826 75.9976 53.9905 74.1702 53.3402 72.3301C53.1708 71.8471 52.9638 71.638 52.4097 71.6401C44.1421 71.6582 35.8745 71.6582 27.6069 71.6401C27.0695 71.6401 26.8374 71.8137 26.6617 72.3134C26.0073 74.1806 25.2838 76.0227 24.6273 77.89C24.3303 78.7263 23.7909 79.0902 22.921 79.0651C22.0512 79.04 21.1479 79.0651 20.2614 79.0651C18.9817 79.0651 18.5635 78.6469 18.5614 77.3923C18.5614 75.4394 18.5614 73.4843 18.5614 71.7321C17.2044 71.0233 15.885 70.5005 14.7538 69.7102C12.3576 68.0374 11.3874 65.5283 10.8772 62.7369C10.0408 58.1263 9.08314 53.5367 8.17776 48.9366C8.09203 48.5038 8.02512 48.1797 7.42292 48.0626C3.00893 47.1781 -0.0543102 43.4918 -0.0668558 39.1008C-0.0794015 34.6805 2.96084 31.0255 7.46056 30.1097C8.00212 29.9989 8.02512 29.6915 8.05857 29.2733C8.49045 23.5455 10.5187 18.0534 13.9132 13.4197C19.448 5.82958 26.8771 1.29222 36.2425 0.209107C52.3428 -1.62675 66.8435 8.29899 71.0254 23.9121C71.475 25.5849 71.6841 27.335 71.9245 29.06C72.0144 29.7061 72.1336 30.0198 72.8801 30.1682C76.4535 30.8896 79.2763 33.888 79.9224 37.5033C79.9589 37.6507 80.0079 37.7948 80.0688 37.934L80.0667 40.1253ZM25.173 56.2047C29.9654 54.2873 34.8687 53.2209 39.9874 53.2168C45.106 53.2126 50.0448 54.2915 54.8122 56.1901C54.9209 55.9204 54.992 55.7552 55.0568 55.5858C57.4907 49.0481 59.9232 42.509 62.3542 35.9685C63.4645 32.9868 65.591 31.1259 68.6271 30.2644L69.4175 30.0449C68.7651 15.1636 55.4081 1.07267 37.4364 2.5907C20.7005 4.00418 10.7894 18.4004 10.62 30.0239C14.3314 31.0694 16.4976 32.8718 17.6121 35.8786C19.3476 40.5358 21.0775 45.1959 22.8019 49.8587C23.5797 51.9517 24.3659 54.0448 25.173 56.2047ZM39.9978 69.1498H42.2665C47.8995 69.1498 53.5325 69.1623 59.1656 69.1498C62.9481 69.1372 65.6768 66.9752 66.4107 63.4185C66.969 60.7149 67.4813 58.0029 68.0145 55.2931C68.5476 52.5832 69.085 49.8252 69.6307 47.0924C69.8398 46.0469 70.1221 45.8127 71.199 45.7123C71.4081 45.6935 71.6171 45.6642 71.8262 45.6392C72.9885 45.4831 74.0884 45.0214 75.0138 44.3011C75.9391 43.5807 76.6566 42.6277 77.0931 41.5393C77.5295 40.4509 77.6692 39.2661 77.4979 38.1061C77.3265 36.946 76.8503 35.8522 76.1179 34.9365C75.3854 34.0207 74.423 33.3158 73.329 32.8937C72.2349 32.4717 71.0484 32.3476 69.8907 32.5342C68.733 32.7208 67.6456 33.2114 66.7396 33.9559C65.8335 34.7003 65.1413 35.6719 64.7337 36.7714C62.1215 43.7719 59.5175 50.7745 56.922 57.7792C56.4076 59.1592 55.9037 59.3788 54.5508 58.8038C50.6238 57.0975 46.4322 56.0804 42.1599 55.797C36.3533 55.4415 30.8018 56.5351 25.4657 58.7996C24.1045 59.3746 23.5985 59.1592 23.0883 57.7897C20.4886 50.8073 17.8902 43.8277 15.2933 36.8509C14.0387 33.4761 10.5886 31.7218 7.22428 32.7066C5.74619 33.1376 4.46322 34.0676 3.59393 35.3384C2.72465 36.6092 2.32283 38.142 2.45692 39.6758C2.7622 42.9356 5.28597 45.3736 8.71513 45.6998C9.9007 45.8148 10.1621 46.0343 10.3879 47.1635C10.9803 50.1535 11.5679 53.1436 12.1506 56.1336C12.6252 58.5466 13.0852 60.9846 13.587 63.408C14.3272 66.9877 17.0685 69.1393 20.9054 69.1456C27.2758 69.1581 33.6399 69.1595 39.9978 69.1498ZM21.1061 76.7107C21.679 76.5308 22.3732 76.5141 22.4945 76.2423C23.1406 74.7786 23.6466 73.2669 24.2258 71.7007H21.1061V76.7107ZM55.7699 71.6924C56.2717 73.0473 56.7317 74.2852 57.1896 75.5251C57.6078 76.6709 57.6078 76.6709 58.8937 76.4514V71.7007L55.7699 71.6924Z" fill="white"></path><path d="M51.5671 30.7685C51.5671 31.4919 51.0423 31.9666 50.1557 32.0084C47.5608 32.1276 45.3465 33.0873 43.5964 35.0173C42.1547 36.5881 41.3238 38.6238 41.2545 40.7548C41.2064 41.771 40.7841 42.3105 40 42.3168C39.2159 42.323 38.7768 41.7878 38.7454 40.7716C38.5656 36.0795 34.9148 32.3555 30.1725 32.0272C29.9906 32.0147 29.8087 32.0272 29.6268 31.9958C28.92 31.9164 28.4475 31.4313 28.437 30.781C28.4372 30.4643 28.5557 30.159 28.7692 29.925C28.9827 29.691 29.2758 29.5452 29.5912 29.516C30.1307 29.4428 30.6827 29.4449 31.2201 29.355C33.2681 29.0111 35.135 27.9718 36.5062 26.4121C37.8773 24.8524 38.6689 22.8678 38.7475 20.7925C38.7475 20.688 38.7475 20.5834 38.7475 20.481C38.8039 19.7241 39.2807 19.2118 39.9519 19.1846C40.1224 19.1797 40.2922 19.2097 40.4508 19.2726C40.6094 19.3356 40.7535 19.4303 40.8743 19.5508C40.995 19.6714 41.0899 19.8153 41.1532 19.9738C41.2164 20.1323 41.2466 20.302 41.242 20.4726C41.25 22.0132 41.6555 23.5256 42.4192 24.8636C44.1233 27.747 46.6617 29.2964 50.0135 29.4825C50.9942 29.5453 51.5796 30.0053 51.5671 30.7685ZM34.9336 30.7685C37.0963 31.9031 38.862 33.6696 39.9958 35.8327C41.1309 33.6683 42.8941 31.8979 45.0538 30.7538C42.9055 29.6125 41.1433 27.8605 39.9895 25.7188C38.8473 27.871 37.0862 29.6314 34.9336 30.7726V30.7685Z" fill="white"></path></g><defs><clipPath id="clip0_8_617"><rect width="80.1335" height="79.0651" fill="white" transform="translate(-0.0668945)"></rect></clipPath></defs></svg> 