<?xml version="1.0" encoding="UTF-8"?> <svg xmlns="http://www.w3.org/2000/svg" width="64" height="80" viewBox="0 0 64 80" fill="none"><path d="M61.1343 65.0602C61.1343 63.6755 60.5041 62.2419 59.1343 60.8123C57.7579 59.3759 55.6967 58.0162 53.0392 56.843C47.7278 54.4984 40.2903 53.0121 32 53.0121C23.7097 53.0121 16.2722 54.4984 10.9608 56.843C8.30327 58.0162 6.24214 59.3759 4.86567 60.8123C3.49586 62.2419 2.86567 63.6755 2.86567 65.0602C2.86567 66.445 3.49586 67.8786 4.86567 69.3082C6.24214 70.7446 8.30327 72.1043 10.9608 73.2775C16.2722 75.6221 23.7097 77.1084 32 77.1084C40.2903 77.1084 47.7278 75.6221 53.0392 73.2775C55.6967 72.1043 57.7579 70.7446 59.1343 69.3082C60.5041 67.8786 61.1343 66.445 61.1343 65.0602ZM61.1343 21.2585C59.4211 23.0243 57.0289 24.5518 54.1884 25.8057C48.4364 28.3449 40.5902 29.8795 32 29.8795C23.4098 29.8795 15.5636 28.3449 9.81157 25.8057C6.97109 24.5518 4.57894 23.0243 2.86567 21.2585V58.7415C4.57894 56.9757 6.97109 55.4482 9.81157 54.1943C15.5636 51.6551 23.4098 50.1205 32 50.1205C40.5902 50.1205 48.4364 51.6551 54.1884 54.1943C57.0289 55.4482 59.4211 56.9757 61.1343 58.7415V21.2585ZM61.1343 14.9398C61.1343 13.555 60.5041 12.1214 59.1343 10.6918C57.7579 9.25543 55.6967 7.89567 53.0392 6.72252C47.7278 4.37793 40.2903 2.89157 32 2.89157C23.7097 2.89157 16.2722 4.37793 10.9608 6.72252C8.30327 7.89567 6.24214 9.25543 4.86567 10.6918C3.49586 12.1214 2.86567 13.555 2.86567 14.9398C2.86567 16.3245 3.49586 17.7581 4.86567 19.1877C6.24214 20.6241 8.30327 21.9838 10.9608 23.157C16.2722 25.5016 23.7097 26.988 32 26.988C40.2903 26.988 47.7278 25.5016 53.0392 23.157C55.6967 21.9838 57.7579 20.6241 59.1343 19.1877C60.5041 17.7581 61.1343 16.3245 61.1343 14.9398ZM64 65.0602C64 67.4018 62.9189 69.5186 61.195 71.3178C59.4778 73.1099 57.0621 74.6576 54.1884 75.9262C48.4364 78.4654 40.5902 80 32 80C23.4098 80 15.5636 78.4654 9.81157 75.9262C6.93789 74.6576 4.52223 73.1099 2.80504 71.3178C1.08111 69.5186 0 67.4018 0 65.0602V14.9398C0 12.5982 1.08111 10.4814 2.80504 8.68223C4.52223 6.8901 6.93789 5.3424 9.81157 4.0738C15.5636 1.53461 23.4098 0 32 0C40.5902 0 48.4364 1.53461 54.1884 4.0738C57.0621 5.3424 59.4778 6.8901 61.195 8.68223C62.9189 10.4814 64 12.5982 64 14.9398V65.0602Z" fill="white"></path></svg> 