<?xml version="1.0" encoding="UTF-8"?> <svg xmlns="http://www.w3.org/2000/svg" width="40" height="40" viewBox="0 0 40 40" fill="none"><rect width="40" height="40" rx="3" fill="#464451"></rect><path d="M23.1393 10.2326C23.1393 9.56804 23.1383 9.12139 23.1148 8.77589C23.092 8.44187 23.0516 8.27783 23.0072 8.16952L22.9336 8.01281C22.7712 7.70977 22.5226 7.46112 22.2195 7.29879L22.0628 7.2252C21.9572 7.18134 21.7935 7.14049 21.4565 7.11755C21.1106 7.09405 20.664 7.09303 19.9998 7.09303C19.3353 7.09303 18.8888 7.09402 18.5431 7.11755C18.2073 7.14041 18.0437 7.181 17.9367 7.2252C17.5096 7.40222 17.1695 7.74233 16.9924 8.16952C16.948 8.27783 16.9076 8.44187 16.8848 8.77589C16.8613 9.12139 16.8603 9.56804 16.8603 10.2326V21.3953C16.8603 21.7246 16.7052 22.0344 16.4419 22.232C15.4463 22.9787 14.7105 24.0202 14.3394 25.208C13.9683 26.3959 13.98 27.6711 14.3734 28.8517C14.767 30.0325 15.5221 31.0605 16.5319 31.7882C17.5416 32.516 18.7551 32.907 19.9998 32.907C21.2444 32.907 22.458 32.516 23.4677 31.7882C24.4774 31.0605 25.2326 30.0325 25.6262 28.8517C26.0196 27.6711 26.0313 26.3959 25.6602 25.208C25.2891 24.0202 24.5532 22.9787 23.5577 22.232C23.2944 22.0344 23.1393 21.7246 23.1393 21.3953V10.2326ZM25.2324 20.8953C26.3671 21.8716 27.2093 23.1483 27.6579 24.5839C28.16 26.1913 28.144 27.9165 27.6115 29.514C27.079 31.1115 26.0575 32.5015 24.6914 33.4861C23.3253 34.4707 21.6837 35 19.9998 35C18.3159 35 16.6743 34.4707 15.3082 33.4861C13.9421 32.5015 12.9206 31.1115 12.3881 29.514C11.8555 27.9165 11.8396 26.1913 12.3417 24.5839C12.7903 23.1483 13.6325 21.8716 14.7672 20.8953V10.2326C14.7672 9.59661 14.7664 9.06728 14.7959 8.63418C14.826 8.19168 14.8915 7.77339 15.0588 7.36828L15.221 7.02489C15.6376 6.24688 16.3131 5.63242 17.1355 5.29161L17.4421 5.18396C17.7513 5.0936 18.0698 5.05119 18.4014 5.02862C18.8346 4.99916 19.3641 5 19.9998 5C20.6358 5 21.1661 4.99913 21.5995 5.02862C22.0416 5.05872 22.4605 5.12347 22.8654 5.29161C23.6876 5.63248 24.362 6.24708 24.7786 7.02489L24.9407 7.36828C25.1081 7.77339 25.1736 8.19168 25.2037 8.63418C25.2332 9.06728 25.2324 9.59661 25.2324 10.2326V20.8953Z" fill="white"></path><path d="M21.744 26.9767C21.744 26.5141 21.5601 26.0706 21.233 25.7435C20.9059 25.4164 20.4624 25.2325 19.9998 25.2325C19.5372 25.2325 19.0937 25.4164 18.7666 25.7435C18.4395 26.0706 18.2556 26.5141 18.2556 26.9767C18.2556 27.4393 18.4395 27.8828 18.7666 28.2099C19.0937 28.537 19.5372 28.7209 19.9998 28.7209C20.4624 28.7209 20.9059 28.537 21.233 28.2099C21.5601 27.8828 21.744 27.4393 21.744 26.9767ZM23.837 26.9767C23.837 27.9944 23.4324 28.9701 22.7128 29.6897C21.9932 30.4094 21.0175 30.8139 19.9998 30.8139C18.9821 30.8139 18.0064 30.4094 17.2868 29.6897C16.5672 28.9701 16.1626 27.9944 16.1626 26.9767C16.1626 25.959 16.5672 24.9833 17.2868 24.2637C17.7537 23.7968 18.3291 23.4651 18.9533 23.288V14.4186C18.9533 13.8406 19.4218 13.3721 19.9998 13.3721C20.5778 13.3721 21.0463 13.8406 21.0463 14.4186V23.288C21.6705 23.4651 22.2459 23.7968 22.7128 24.2637C23.4324 24.9833 23.837 25.959 23.837 26.9767Z" fill="white"></path></svg> 