<?xml version="1.0" encoding="UTF-8"?> <svg xmlns="http://www.w3.org/2000/svg" width="40" height="40" viewBox="0 0 40 40" fill="none"><rect width="40" height="40" rx="3" fill="#464451"></rect><path d="M8.33335 30C8.33335 30.8328 8.33632 31.2896 8.37892 31.6064C8.37943 31.6102 8.38003 31.6142 8.38055 31.6178C8.3848 31.6184 8.38912 31.6205 8.39357 31.6211C8.71036 31.6637 9.16717 31.6667 10 31.6667H11.6667C12.4995 31.6667 12.9563 31.6637 13.2731 31.6211C13.277 31.6206 13.2808 31.6183 13.2845 31.6178C13.285 31.6141 13.2872 31.6103 13.2878 31.6064C13.3304 31.2896 13.3333 30.8328 13.3333 30V26.6667H10C9.16717 26.6667 8.71036 26.6696 8.39357 26.7122C8.3892 26.7128 8.38473 26.7133 8.38055 26.7139C8.37996 26.718 8.37951 26.7225 8.37892 26.7269C8.33632 27.0437 8.33335 27.5005 8.33335 28.3333V30ZM35 15H31.6667V10.6901L16.6667 25.6901V30C16.6667 30.7386 16.6696 31.4601 16.5902 32.0508C16.5042 32.6897 16.2953 33.4182 15.6901 34.0234C15.0849 34.6286 14.3564 34.8375 13.7175 34.9235C13.1268 35.0029 12.4053 35 11.6667 35H10C9.26138 35 8.53992 35.0029 7.94923 34.9235C7.31027 34.8375 6.58178 34.6286 5.97658 34.0234C5.37137 33.4182 5.16247 32.6897 5.07651 32.0508C4.99706 31.4601 5.00001 30.7386 5.00001 30V28.3333C5.00001 27.5947 4.99706 26.8732 5.07651 26.2825C5.16247 25.6436 5.37137 24.9151 5.97658 24.3099L6.20932 24.1016C6.76292 23.6548 7.39013 23.485 7.94923 23.4098C8.53992 23.3304 9.26138 23.3333 10 23.3333H14.3099L29.3099 8.33333H25V5H35V15Z" fill="white"></path></svg> 