<?xml version="1.0" encoding="UTF-8"?> <svg xmlns="http://www.w3.org/2000/svg" width="80" height="80" viewBox="0 0 80 80" fill="none"><g clip-path="url(#clip0_8_604)"><path d="M52.6985 38.5542C55.1955 38.5542 57.1856 38.552 58.7923 38.7284C60.4338 38.9085 61.8114 39.2864 63.0542 40.128C64.2972 40.9698 65.1592 42.1077 65.9362 43.5646C66.6962 44.9897 67.4328 46.837 68.3615 49.1529H68.3624L71.4497 56.8637V56.8646C73.3481 61.6124 74.8373 65.3248 75.54 68.2728C76.2275 71.1568 76.2444 73.631 74.895 75.7728L74.76 75.9789C73.2774 78.1667 70.9243 79.1144 67.8984 79.5614C64.9008 80.0041 60.9021 80 55.7867 80H24.2131C19.0971 80 15.0982 80.0028 12.1005 79.5595C9.07485 79.112 6.72233 78.1644 5.23977 75.9789C3.75507 73.7901 3.75014 71.2499 4.45976 68.2728C5.16246 65.3248 6.65174 61.6124 8.55013 56.8646V56.8637L11.6374 49.1529C12.5644 46.8365 13.302 44.9901 14.0627 43.5646C14.8404 42.1073 15.703 40.9695 16.9455 40.128L16.9465 40.1271C18.1902 39.2864 19.5655 38.9086 21.2065 38.7284C22.8123 38.552 24.8015 38.5542 27.3004 38.5542H52.6985ZM10.1167 60.7229C8.75845 64.1575 7.77135 66.801 7.26011 68.9458C6.62581 71.607 6.80869 73.1553 7.62012 74.3515C8.43385 75.551 9.81022 76.2982 12.5205 76.699C15.2588 77.1039 19.0035 77.1084 24.2131 77.1084H38.5599V60.7229H10.1167ZM41.4399 77.1084H55.7867C60.9965 77.1084 64.741 77.1044 67.4793 76.6999C70.1891 76.2997 71.565 75.5531 72.3787 74.3524L72.3797 74.3515C73.191 73.1553 73.374 71.6069 72.7397 68.9458C72.2284 66.801 71.2413 64.1574 69.8831 60.7229H41.4399V77.1084ZM41.4399 57.8313H68.7337L65.6896 50.2316V50.2306C64.7371 47.8554 64.0648 46.1826 63.3964 44.9294C62.745 43.708 62.1589 43.0089 61.4436 42.5245C60.7281 42.04 59.8586 41.7544 58.4792 41.603C57.0649 41.4478 55.2585 41.4458 52.6985 41.4458H41.4399V57.8313ZM27.3004 41.4458C24.7387 41.4458 22.9338 41.4478 21.5206 41.603C20.1434 41.7542 19.2734 42.0385 18.5553 42.5235L18.5562 42.5245C17.8403 43.0093 17.2532 43.7091 16.6015 44.9303C15.9329 46.1832 15.2608 47.8563 14.3102 50.2316H14.3093L11.2661 57.8313H38.5599V41.4458H27.3004ZM16.9596 26.988C17.7549 26.988 18.3996 27.6353 18.3996 28.4337C18.3996 29.2322 17.7549 29.8795 16.9596 29.8795H13.1196C12.3243 29.8795 11.6795 29.2322 11.6795 28.4337C11.6795 27.6353 12.3243 26.988 13.1196 26.988H16.9596ZM50.08 28.4337C50.08 25.7496 49.0182 23.1753 47.1278 21.2773C45.2374 19.3794 42.6733 18.3133 39.9999 18.3133C37.3265 18.3133 34.7624 19.3794 32.872 21.2773C30.9816 23.1753 29.9198 25.7496 29.9198 28.4337C29.9198 29.2322 29.275 29.8795 28.4798 29.8795C27.6845 29.8795 27.0397 29.2322 27.0397 28.4337C27.0397 24.9827 28.4052 21.6731 30.8357 19.2329C33.2662 16.7927 36.5627 15.4217 39.9999 15.4217C43.4371 15.4217 46.7336 16.7927 49.1641 19.2329C51.5946 21.6731 52.9601 24.9827 52.9601 28.4337C52.9601 29.2322 52.3153 29.8795 51.52 29.8795C50.7247 29.8795 50.08 29.2322 50.08 28.4337ZM66.8802 26.988L67.0274 26.9955C67.7535 27.0695 68.3203 27.6852 68.3203 28.4337C68.3203 29.1823 67.7535 29.7979 67.0274 29.872L66.8802 29.8795H63.0402C62.2449 29.8795 61.6002 29.2322 61.6002 28.4337C61.6002 27.6353 62.2449 26.988 63.0402 26.988H66.8802ZM19.9737 8.32737C20.5009 7.79815 21.3347 7.76463 21.9003 8.2276L22.01 8.32737L24.725 11.0533L24.8235 11.1625C25.2849 11.7303 25.2522 12.5683 24.725 13.0977C24.1977 13.6271 23.3631 13.6598 22.7975 13.1965L22.6878 13.0977L19.9737 10.3718L19.8743 10.2617C19.4132 9.69381 19.4466 8.85663 19.9737 8.32737ZM57.9861 8.32737C58.5484 7.76276 59.46 7.76276 60.0223 8.32737C60.5846 8.89199 60.5847 9.80722 60.0223 10.3718L57.3073 13.0977C56.7449 13.6621 55.8333 13.6622 55.271 13.0977C54.7087 12.5332 54.7089 11.6179 55.271 11.0533L57.9861 8.32737ZM38.5599 5.30121V1.44578C38.5599 0.647299 39.2046 0 39.9999 0C40.7952 4.57014e-05 41.4399 0.647327 41.4399 1.44578V5.30121C41.4399 6.09966 40.7952 6.74694 39.9999 6.74699C39.2046 6.74699 38.5599 6.09969 38.5599 5.30121Z" fill="white"></path></g><defs><clipPath id="clip0_8_604"><rect width="80" height="80" fill="white"></rect></clipPath></defs></svg> 