<?xml version="1.0" encoding="UTF-8"?> <svg xmlns="http://www.w3.org/2000/svg" width="77" height="14" viewBox="0 0 77 14" fill="none"><path d="M0 13.3044V10.5566H0.448619C0.626198 10.4351 0.789757 10.2996 0.939297 10.15C1.09818 10.0005 1.23838 9.79019 1.35988 9.51914C1.49073 9.2481 1.60755 8.87893 1.71036 8.41162C1.82252 7.93496 1.92533 7.31343 2.01879 6.54704C2.11225 5.78065 2.19637 4.82266 2.27114 3.67307L2.52348 0H6.79939V10.5566H7.72467V13.3044H6.8835L6.78537 11.3557H0.939297L0.841161 13.3044H0ZM1.52811 10.5566H5.73392V0.813123H3.46278L3.25249 3.9114C3.18707 5.05164 3.10762 5.99561 3.01416 6.74331C2.9207 7.48166 2.82256 8.07982 2.71976 8.53779C2.61695 8.98641 2.50012 9.33689 2.36927 9.58924C2.24777 9.84159 2.11692 10.0379 1.97673 10.1781C1.83654 10.3089 1.687 10.4351 1.52811 10.5566Z" fill="#A1DEFF"></path><path d="M8.38204 11.3557V0H9.33536V9.00043L13.0084 0H13.8356V11.3557H12.8823V2.31319L9.2232 11.3557H8.38204Z" fill="#A1DEFF"></path><path d="M15.1155 11.3557V0H17.5549C18.0689 0 18.5035 0.0654237 18.8587 0.196271C19.2138 0.327118 19.4989 0.518716 19.7138 0.771065C19.9288 1.02341 20.083 1.32717 20.1765 1.68232C20.2793 2.02813 20.3307 2.41133 20.3307 2.83191C20.3307 3.19641 20.284 3.55157 20.1905 3.89738C20.1064 4.23385 19.9615 4.52358 19.7559 4.76658C19.5503 5.00024 19.2606 5.15445 18.8867 5.22922C19.326 5.35072 19.6718 5.56101 19.9241 5.86009C20.1765 6.14982 20.3494 6.49096 20.4429 6.8835C20.5457 7.2667 20.5971 7.66392 20.5971 8.07515C20.5971 8.52377 20.555 8.94902 20.4709 9.35091C20.3961 9.74345 20.2559 10.0893 20.0503 10.3883C19.854 10.6874 19.583 10.9258 19.2372 11.1033C18.8914 11.2716 18.4521 11.3557 17.9194 11.3557H15.1155ZM16.181 10.5566H17.7091C18.4474 10.5566 18.9381 10.3556 19.1811 9.95374C19.4335 9.55186 19.5596 8.92566 19.5596 8.07515C19.5596 7.61718 19.5036 7.21062 19.3914 6.85547C19.2792 6.50031 19.0876 6.2246 18.8166 6.02832C18.5549 5.82271 18.1951 5.7199 17.7371 5.7199H16.181V10.5566ZM16.181 4.89276H17.7231C18.1624 4.89276 18.4988 4.80864 18.7325 4.64041C18.9661 4.46283 19.1297 4.2245 19.2232 3.92542C19.3166 3.61699 19.3634 3.25249 19.3634 2.83191C19.3634 2.37395 19.2979 1.99542 19.1671 1.69634C19.0456 1.39726 18.8306 1.17763 18.5222 1.03743C18.2138 0.897239 17.7698 0.827142 17.1904 0.827142H16.181V4.89276Z" fill="#A1DEFF"></path><path d="M21.4516 11.3557V0H22.5171V5.03295H26.092V0H27.1575V11.3557H26.092V5.83205H22.5171V11.3557H21.4516Z" fill="#A1DEFF"></path><path d="M28.4308 11.3557V0H29.5103V4.76658H30.4776C31.216 4.76658 31.8235 4.88341 32.3002 5.11707C32.7862 5.34138 33.146 5.69653 33.3797 6.18254C33.6133 6.66854 33.7301 7.30876 33.7301 8.10319C33.7301 8.61723 33.6694 9.0752 33.5479 9.47709C33.4357 9.87897 33.2488 10.2201 32.9871 10.5005C32.7254 10.7809 32.3889 10.9958 31.9777 11.1454C31.5758 11.2856 31.0898 11.3557 30.5197 11.3557H28.4308ZM29.5103 10.5426H30.5197C31.0431 10.5426 31.4637 10.4631 31.7814 10.3042C32.0992 10.136 32.3282 9.86963 32.4684 9.50512C32.6179 9.14062 32.6927 8.66864 32.6927 8.08917C32.6927 7.2667 32.5338 6.64518 32.216 6.2246C31.8983 5.79467 31.3328 5.5797 30.5197 5.5797H29.5103V10.5426ZM35.09 11.3557V0H36.1555V11.3557H35.09Z" fill="#A1DEFF"></path><path d="M37.4229 11.3557V0H41.5306V0.827142H38.5024V5.08903H40.9698V5.87411H38.5024V10.5566H41.5586V11.3557H37.4229Z" fill="#A1DEFF"></path><path d="M58 11.4V0H59.0837V5.23556H59.8859L62.2222 0H63.3059L60.8289 5.48889L63.6859 11.4H62.6022L59.9 5.81259H59.0837V11.4H58Z" fill="white"></path><path d="M64.1275 11.4V0H65.1971V5.05259H68.786V0H69.8556V11.4H68.786V5.85482H65.1971V11.4H64.1275Z" fill="white"></path><path d="M70.5288 11.4L72.9355 0H74.0614L76.4821 11.4H75.4266L74.8636 8.34593H72.1473L71.5703 11.4H70.5288ZM72.3021 7.57185H74.7229L73.5125 1.42148L72.3021 7.57185Z" fill="white"></path><path d="M53.667 0.400391H56.333C56.4803 0.400391 56.5996 0.519716 56.5996 0.666992V4.66699C56.5994 4.81412 56.4802 4.93359 56.333 4.93359H53.667C53.5198 4.93359 53.4006 4.81412 53.4004 4.66699V0.666992C53.4004 0.519716 53.5197 0.400391 53.667 0.400391Z" stroke="white" stroke-width="0.8"></path><path d="M52 4.66699L51.9863 4.80078C51.9242 5.10467 51.6552 5.33301 51.333 5.33301H48.667L48.5322 5.31934C48.2718 5.26598 48.0669 5.06121 48.0137 4.80078L48 4.66699V0.666992C48 0.344863 48.2285 0.0758766 48.5322 0.0136719L48.667 0H51.333C51.7012 0 52 0.298802 52 0.666992V4.66699Z" fill="#A1DEFF"></path><path d="M48.667 6.40039H51.333C51.4803 6.40039 51.5996 6.51972 51.5996 6.66699V10.667C51.5994 10.8141 51.4802 10.9336 51.333 10.9336H48.667C48.5198 10.9336 48.4006 10.8141 48.4004 10.667V6.66699C48.4004 6.51972 48.5197 6.40039 48.667 6.40039Z" stroke="white" stroke-width="0.8"></path><path d="M53.667 6.40039H56.333C56.4803 6.40039 56.5996 6.51972 56.5996 6.66699V10.667C56.5994 10.8141 56.4802 10.9336 56.333 10.9336H53.667C53.5198 10.9336 53.4006 10.8141 53.4004 10.667V6.66699C53.4004 6.51972 53.5197 6.40039 53.667 6.40039Z" stroke="white" stroke-width="0.8"></path></svg> 