<?xml version="1.0" encoding="UTF-8"?> <svg xmlns="http://www.w3.org/2000/svg" width="23" height="22" viewBox="0 0 23 22" fill="none"><path d="M19.4827 7.00002H20.5447C21.0751 7.00002 21.5838 7.21074 21.9589 7.58581C22.334 7.96088 22.5447 8.46959 22.5447 9.00002V13C22.5447 13.5305 22.334 14.0392 21.9589 14.4142C21.5838 14.7893 21.0751 15 20.5447 15H19.4827C19.2391 16.9334 18.2982 18.7114 16.8366 20.0003C15.3751 21.2891 13.4933 22.0002 11.5447 22V20C13.136 20 14.6621 19.3679 15.7873 18.2427C16.9125 17.1174 17.5447 15.5913 17.5447 14V8.00002C17.5447 6.40872 16.9125 4.8826 15.7873 3.75738C14.6621 2.63216 13.136 2.00002 11.5447 2.00002C9.95338 2.00002 8.42726 2.63216 7.30204 3.75738C6.17682 4.8826 5.54468 6.40872 5.54468 8.00002V15H2.54468C2.01424 15 1.50554 14.7893 1.13046 14.4142C0.755391 14.0392 0.544678 13.5305 0.544678 13V9.00002C0.544678 8.46959 0.755391 7.96088 1.13046 7.58581C1.50554 7.21074 2.01424 7.00002 2.54468 7.00002H3.60668C3.85071 5.06692 4.79176 3.2893 6.25325 2.0007C7.71474 0.712101 9.59623 0.00109863 11.5447 0.00109863C13.4931 0.00109863 15.3746 0.712101 16.8361 2.0007C18.2976 3.2893 19.2386 5.06692 19.4827 7.00002ZM2.54468 9.00002V13H3.54468V9.00002H2.54468ZM19.5447 9.00002V13H20.5447V9.00002H19.5447ZM7.30468 14.785L8.36468 13.089C9.31771 13.6862 10.42 14.0019 11.5447 14C12.6693 14.0019 13.7716 13.6862 14.7247 13.089L15.7847 14.785C14.514 15.5813 13.0442 16.0025 11.5447 16C10.0451 16.0025 8.57535 15.5813 7.30468 14.785Z" fill="#A1DEFF"></path></svg> 