<?xml version="1.0" encoding="UTF-8"?> <svg xmlns="http://www.w3.org/2000/svg" width="17" height="22" viewBox="0 0 17 22" fill="none"><path d="M3.60168 1.41805L4.76868 1.06705C5.40797 0.874278 6.09556 0.920685 6.70315 1.19761C7.31074 1.47454 7.79681 1.96308 8.07068 2.57205L8.97268 4.57805C9.20814 5.10186 9.27371 5.68623 9.16019 6.24919C9.04666 6.81215 8.75974 7.32544 8.33968 7.71705L6.84468 9.11005C6.80101 9.15075 6.77334 9.20573 6.76668 9.26505C6.72268 9.66205 6.99168 10.4351 7.61268 11.5101C8.06268 12.2911 8.47168 12.8401 8.81868 13.1471C9.06168 13.3621 9.19468 13.4081 9.25168 13.3921L11.2617 12.7771C11.8106 12.6092 12.3983 12.6172 12.9424 12.8001C13.4865 12.9831 13.9597 13.3317 14.2957 13.7971L15.5757 15.5731C15.9654 16.113 16.1459 16.776 16.0837 17.439C16.0215 18.102 15.7209 18.7199 15.2377 19.1781L14.3507 20.0181C13.8804 20.4634 13.3029 20.7793 12.6743 20.9351C12.0457 21.0909 11.3874 21.0812 10.7637 20.9071C8.00968 20.1381 5.54068 17.8141 3.32868 13.9831C1.11468 10.1471 0.336678 6.84305 1.05468 4.07005C1.21585 3.44639 1.53496 2.87476 1.98125 2.41025C2.42754 1.94575 2.98496 1.60404 3.60168 1.41805ZM4.03568 2.85505C3.66557 2.96636 3.33036 3.17113 3.06238 3.44962C2.7944 3.72811 2.60267 4.07094 2.50568 4.44505C1.90368 6.77705 2.59268 9.70605 4.62868 13.2331C6.66268 16.7551 8.85168 18.8161 11.1687 19.4631C11.543 19.5674 11.9379 19.5731 12.315 19.4795C12.6922 19.386 13.0386 19.1963 13.3207 18.9291L14.2067 18.0891C14.4265 17.8808 14.5633 17.5999 14.5916 17.2985C14.6199 16.997 14.5379 16.6956 14.3607 16.4501L13.0807 14.6751C12.9279 14.4633 12.7127 14.3046 12.4652 14.2214C12.2177 14.1382 11.9503 14.1346 11.7007 14.2111L9.68568 14.8281C8.51568 15.1761 7.45468 14.2351 6.31468 12.2601C5.54468 10.9301 5.18668 9.90005 5.27668 9.09905C5.32268 8.68305 5.51668 8.29905 5.82168 8.01305L7.31668 6.62005C7.50753 6.44195 7.63784 6.20856 7.68931 5.95264C7.74078 5.69671 7.71084 5.4311 7.60368 5.19305L6.70268 3.18705C6.57818 2.91024 6.35721 2.68819 6.08102 2.56233C5.80482 2.43647 5.49226 2.4154 5.20168 2.50305L4.03568 2.85505Z" fill="#A1DEFF"></path></svg> 