<?xml version="1.0" encoding="UTF-8"?> <svg xmlns="http://www.w3.org/2000/svg" width="19" height="16" viewBox="0 0 19 16" fill="none"><g clip-path="url(#clip0_75_394)"><path d="M16.2545 3.74998C16.3208 3.74998 16.3844 3.72364 16.4313 3.67675C16.4782 3.62987 16.5045 3.56628 16.5045 3.49998V2.66748C16.5042 2.45035 16.4179 2.24218 16.2643 2.08865C16.1108 1.93511 15.9026 1.84874 15.6855 1.84848H14.342L14.0355 0.943978C14.0147 0.882466 13.9707 0.831475 13.9129 0.801798C13.8552 0.772122 13.7881 0.766089 13.726 0.784978L6.44949 2.99698C6.38927 3.01895 6.33976 3.06318 6.31116 3.12056C6.28256 3.17793 6.27705 3.24409 6.29576 3.30541C6.31447 3.36673 6.35597 3.41854 6.41173 3.45018C6.46749 3.48182 6.53326 3.49087 6.59549 3.47548L13.64 1.33348L14.3115 3.31598C14.3328 3.37877 14.3781 3.43053 14.4376 3.45988C14.497 3.48923 14.5657 3.49376 14.6285 3.47248C14.6913 3.45119 14.743 3.40584 14.7724 3.34639C14.8017 3.28694 14.8063 3.21827 14.785 3.15548L14.5115 2.34798H15.686C15.862 2.34798 16.005 2.49098 16.005 2.66698V3.49998C16.0045 3.63798 16.1165 3.74998 16.2545 3.74998Z" fill="white"></path><path d="M18.25 7.4999C18.1837 7.4999 18.1201 7.52624 18.0732 7.57313C18.0263 7.62001 18 7.6836 18 7.7499C18 7.81621 18.0263 7.8798 18.0732 7.92668C18.1201 7.97357 18.1837 7.9999 18.25 7.9999C18.4255 7.9999 18.5 8.0744 18.5 8.2499V11.2499C18.5 11.4254 18.4255 11.4999 18.25 11.4999H14.25C14.0745 11.4999 14 11.4254 14 11.2499V8.7499C14 8.5744 14.0745 8.4999 14.25 8.4999H17.25C17.3163 8.4999 17.3799 8.47357 17.4268 8.42668C17.4737 8.3798 17.5 8.31621 17.5 8.2499V5.2499C17.5 4.7944 17.2055 4.4999 16.75 4.4999H1.5C0.8835 4.4999 0.5 4.1164 0.5 3.4999C0.5 2.8834 0.8835 2.4999 1.5 2.4999H4.038L2.525 2.9989C2.49269 3.00822 2.46259 3.02396 2.43651 3.04518C2.41042 3.0664 2.38889 3.09267 2.37319 3.1224C2.35749 3.15214 2.34795 3.18474 2.34514 3.21825C2.34234 3.25176 2.34632 3.28549 2.35685 3.31742C2.36738 3.34936 2.38425 3.37884 2.40644 3.4041C2.42863 3.42937 2.45569 3.44989 2.486 3.46446C2.51631 3.47902 2.54925 3.48732 2.58284 3.48885C2.61643 3.49039 2.64999 3.48514 2.6815 3.4734L11.741 0.486905C11.7722 0.476596 11.801 0.460245 11.8259 0.438785C11.8508 0.417326 11.8712 0.391178 11.8859 0.361835C11.9007 0.332491 11.9096 0.300527 11.912 0.267767C11.9144 0.235008 11.9103 0.202093 11.9 0.170905C11.8897 0.139716 11.8733 0.110863 11.8519 0.0859927C11.8304 0.0611229 11.8043 0.0407233 11.7749 0.0259588C11.7456 0.0111943 11.7136 0.00235395 11.6809 -5.74822e-05C11.6481 -0.00246891 11.6152 0.00159579 11.584 0.0119046L5.534 2.0069C5.5225 2.0049 5.512 1.9999 5.5 1.9999H1.5C0.603 1.9999 0 2.6029 0 3.4999V14.4999C0 15.3969 0.603 15.9999 1.5 15.9999H16.75C17.2055 15.9999 17.5 15.7054 17.5 15.2499V12.7499C17.5 12.6836 17.4737 12.62 17.4268 12.5731C17.3799 12.5262 17.3163 12.4999 17.25 12.4999C17.1837 12.4999 17.1201 12.5262 17.0732 12.5731C17.0263 12.62 17 12.6836 17 12.7499V15.2499C17 15.4254 16.9255 15.4999 16.75 15.4999H1.5C0.8835 15.4999 0.5 15.1164 0.5 14.4999V4.6559C0.7565 4.8724 1.096 4.9999 1.5 4.9999H16.75C16.9255 4.9999 17 5.0744 17 5.2499V7.9999H14.25C13.7945 7.9999 13.5 8.2944 13.5 8.7499V11.2499C13.5 11.7054 13.7945 11.9999 14.25 11.9999H18.25C18.7055 11.9999 19 11.7054 19 11.2499V8.2499C19 7.7944 18.7055 7.4999 18.25 7.4999Z" fill="white"></path><path d="M16 10.5C16.2761 10.5 16.5 10.2761 16.5 10C16.5 9.72386 16.2761 9.5 16 9.5C15.7239 9.5 15.5 9.72386 15.5 10C15.5 10.2761 15.7239 10.5 16 10.5Z" fill="white"></path></g><defs><clipPath id="clip0_75_394"><rect width="19" height="16" fill="white"></rect></clipPath></defs></svg> 