<?xml version="1.0" encoding="UTF-8"?> <svg xmlns="http://www.w3.org/2000/svg" width="21" height="16" viewBox="0 0 21 16" fill="none"><g clip-path="url(#clip0_75_399)"><path d="M16.979 6.494C16.7655 3.188 14.4665 0 10.25 0C6.3935 0 3.4195 2.8665 3.262 6.692C1.152 7.3485 0 9.6065 0 11.25C0 13.7805 2.103 16 4.5 16H16.5C18.9235 16 21 13.388 21 11.25C21 8.6665 18.8885 6.646 16.979 6.494ZM16.5 15.5H4.5C2.369 15.5 0.5 13.514 0.5 11.25C0.5 9.7245 1.837 7 4.5 7H5.25C5.3163 7 5.37989 6.97366 5.42678 6.92678C5.47366 6.87989 5.5 6.8163 5.5 6.75C5.5 6.6837 5.47366 6.62011 5.42678 6.57322C5.37989 6.52634 5.3163 6.5 5.25 6.5H4.5C4.2455 6.5 4.005 6.5285 3.7705 6.5695C3.9665 3.5745 6.243 0.5 10.25 0.5C14.544 0.5 16.5 3.8695 16.5 7V7.75C16.5 7.8163 16.5263 7.87989 16.5732 7.92678C16.6201 7.97366 16.6837 8 16.75 8C16.8163 8 16.8799 7.97366 16.9268 7.92678C16.9737 7.87989 17 7.8163 17 7.75V6.9955C18.5095 7.161 20.5 8.781 20.5 11.25C20.5 13.163 18.6545 15.5 16.5 15.5Z" fill="white"></path></g><defs><clipPath id="clip0_75_399"><rect width="21" height="16" fill="white"></rect></clipPath></defs></svg> 