<?xml version="1.0" encoding="UTF-8"?> <svg xmlns="http://www.w3.org/2000/svg" width="16" height="16" viewBox="0 0 16 16" fill="none"><g clip-path="url(#clip0_75_401)"><path d="M0.75 16H15.25C15.6635 16 16 15.6635 16 15.25V0.75C16 0.3365 15.6635 0 15.25 0H0.75C0.3365 0 0 0.3365 0 0.75V15.25C0 15.6635 0.3365 16 0.75 16ZM0.5 0.75C0.5 0.683696 0.526339 0.620107 0.573223 0.573223C0.620107 0.526339 0.683696 0.5 0.75 0.5H15.25C15.3163 0.5 15.3799 0.526339 15.4268 0.573223C15.4737 0.620107 15.5 0.683696 15.5 0.75V15.25C15.5 15.3163 15.4737 15.3799 15.4268 15.4268C15.3799 15.4737 15.3163 15.5 15.25 15.5H0.75C0.683696 15.5 0.620107 15.4737 0.573223 15.4268C0.526339 15.3799 0.5 15.3163 0.5 15.25V0.75Z" fill="white"></path><path d="M2.00002 14.2395C2.02424 14.2394 2.04832 14.2359 2.07152 14.229L7.07152 12.7395C7.11179 12.7276 7.14842 12.7057 7.17802 12.676L12.223 7.57346C12.2345 7.56146 12.2405 7.54696 12.249 7.53346L14.078 5.70446C14.2238 5.55825 14.3057 5.36019 14.3057 5.15371C14.3057 4.94723 14.2238 4.74917 14.078 4.60296L11.46 1.98596C11.3138 1.84032 11.1159 1.75854 10.9095 1.75854C10.7032 1.75854 10.5052 1.84032 10.359 1.98596L8.48952 3.85546C8.47752 3.86746 8.47152 3.88246 8.46252 3.89596L3.40352 8.95546C3.37562 8.98335 3.35472 9.01745 3.34252 9.05496L1.76252 13.9125C1.75038 13.9499 1.74728 13.9898 1.75346 14.0287C1.75964 14.0676 1.77493 14.1045 1.79809 14.1364C1.82124 14.1683 1.8516 14.1942 1.8867 14.2121C1.92179 14.23 1.96062 14.2394 2.00002 14.2395ZM8.67952 4.38546L9.19952 4.90546L4.93802 9.18696L4.07452 8.99096L8.67952 4.38546ZM5.25002 9.58246L9.55352 5.25946L10.7705 6.47646L6.39802 10.75H5.25002V9.58246ZM11.6925 7.39846L7.06952 12.0745L6.78152 11.075L11.1235 6.83046L11.6925 7.39846ZM3.74652 9.42946L4.75002 9.65746V11C4.75002 11.0663 4.77636 11.1299 4.82324 11.1767C4.87013 11.2236 4.93372 11.25 5.00002 11.25H6.31202L6.62852 12.35L2.38502 13.614L3.74652 9.42946ZM10.7125 2.33946C10.7649 2.28755 10.8357 2.25844 10.9095 2.25844C10.9833 2.25844 11.0541 2.28755 11.1065 2.33946L13.724 4.95696C13.7761 5.00941 13.8053 5.08031 13.8053 5.15421C13.8053 5.22811 13.7761 5.29901 13.724 5.35146L12.038 7.03746L9.02652 4.02596L10.7125 2.33946Z" fill="white"></path></g><defs><clipPath id="clip0_75_401"><rect width="16" height="16" fill="white"></rect></clipPath></defs></svg> 