<?xml version="1.0" encoding="UTF-8"?> <svg xmlns="http://www.w3.org/2000/svg" width="18" height="16" viewBox="0 0 18 16" fill="none"><g clip-path="url(#clip0_75_405)"><path d="M13.732 1.15709C13.719 1.12451 13.6993 1.09502 13.6742 1.07055C13.6491 1.04607 13.6191 1.02716 13.5862 1.01504C13.5533 1.00293 13.5182 0.997868 13.4832 1.0002C13.4482 1.00254 13.414 1.01221 13.383 1.02859L7.43003 4.16959C7.37602 4.19817 7.33435 4.24553 7.31288 4.30274C7.29142 4.35995 7.29165 4.42304 7.31353 4.48009L7.43603 4.80059L3.99953 6.68509C3.94544 6.71467 3.9042 6.7632 3.88371 6.82134C3.86322 6.87948 3.86494 6.94314 3.88853 7.00009L4.00253 7.27459L0.353026 9.01859C0.295243 9.04622 0.250268 9.09498 0.227381 9.1548C0.204495 9.21462 0.205441 9.28095 0.230026 9.34009L0.979026 11.1451C1.00353 11.2043 1.04982 11.2518 1.10834 11.2778C1.16686 11.3039 1.23315 11.3065 1.29353 11.2851L5.10603 9.93459L5.22003 10.2091C5.24356 10.2659 5.28723 10.3121 5.34267 10.3388C5.39811 10.3654 5.46143 10.3707 5.52053 10.3536L9.15853 9.30509L9.26753 9.58959C9.2899 9.64879 9.33403 9.69722 9.39089 9.725C9.44775 9.75278 9.51307 9.75782 9.57353 9.73909L16.0735 7.73909C16.1065 7.72891 16.137 7.71202 16.1632 7.68946C16.1893 7.66691 16.2105 7.63919 16.2254 7.60805C16.2402 7.5769 16.2485 7.54302 16.2497 7.50852C16.2508 7.47402 16.2448 7.43965 16.232 7.40759L13.732 1.15709ZM1.35003 10.7346L0.783026 9.36759L4.19453 7.73709L4.91403 9.47209L1.35003 10.7346ZM5.59553 9.81159L5.47653 9.52459L4.55503 7.30209L4.43603 7.01559L7.60403 5.27809L8.79103 8.34509L8.97853 8.83559L5.59553 9.81159ZM9.65003 9.19259L9.54853 8.92709C9.54703 8.92159 9.54803 8.91509 9.54553 8.90959L9.23653 8.11109L7.85953 4.50809L13.371 1.60059L15.667 7.34059L9.65003 9.19259ZM14.482 0.157091C14.4574 0.0954946 14.4094 0.0461927 14.3484 0.0200314C14.2875 -0.00612993 14.2186 -0.00700773 14.157 0.0175911C14.0954 0.0421899 14.0461 0.0902504 14.02 0.1512C13.9938 0.212149 13.9929 0.280995 14.0175 0.342591L17.0175 7.84259C17.0297 7.87316 17.0478 7.90102 17.0707 7.92459C17.0937 7.94815 17.1211 7.96695 17.1513 7.97991C17.1816 7.99287 17.2141 7.99973 17.247 8.00011C17.2799 8.00048 17.3125 7.99436 17.343 7.98209C17.3735 7.96992 17.4013 7.95186 17.4249 7.92893C17.4484 7.90601 17.4672 7.87868 17.4801 7.8485C17.4931 7.81831 17.5 7.78588 17.5004 7.75303C17.5008 7.72019 17.4947 7.68759 17.4825 7.65709L14.482 0.157091ZM9.00003 10.5001H7.50003C6.93003 10.5001 6.50003 10.9301 6.50003 11.5001V12.1576L3.56053 15.5871C3.53757 15.6117 3.51982 15.6408 3.50836 15.6724C3.4969 15.7041 3.49196 15.7378 3.49383 15.7714C3.4957 15.805 3.50434 15.8379 3.51925 15.8681C3.53415 15.8983 3.55501 15.9252 3.58056 15.9472C3.60611 15.9691 3.63583 15.9857 3.66794 15.9958C3.70005 16.006 3.73388 16.0096 3.76741 16.0064C3.80093 16.0031 3.83346 15.9932 3.86304 15.977C3.89262 15.9609 3.91863 15.939 3.93953 15.9126L6.86503 12.5001H8.00003V15.7501C8.00003 15.8164 8.02637 15.88 8.07325 15.9269C8.12013 15.9738 8.18372 16.0001 8.25003 16.0001C8.31633 16.0001 8.37992 15.9738 8.4268 15.9269C8.47369 15.88 8.50003 15.8164 8.50003 15.7501V12.5001H9.63503L12.56 15.9126C12.5813 15.9377 12.6073 15.9583 12.6366 15.9733C12.6659 15.9882 12.6978 15.9972 12.7306 15.9997C12.7634 16.0022 12.7964 15.9982 12.8276 15.9879C12.8588 15.9776 12.8877 15.9611 12.9125 15.9396C12.9628 15.8964 12.994 15.835 12.999 15.7689C13.0041 15.7028 12.9827 15.6374 12.9395 15.5871L10 12.1576V11.5376C10 10.9561 9.56103 10.5001 9.00003 10.5001ZM9.50003 12.0001H7.00003V11.5001C7.00003 11.2056 7.20553 11.0001 7.50003 11.0001H9.00003C9.28503 11.0001 9.50003 11.2311 9.50003 11.5376V12.0001Z" fill="white"></path></g><defs><clipPath id="clip0_75_405"><rect width="17.5" height="16" fill="white"></rect></clipPath></defs></svg> 