<?xml version="1.0" encoding="UTF-8"?> <svg xmlns="http://www.w3.org/2000/svg" width="80" height="81" viewBox="0 0 80 81" fill="none"><g clip-path="url(#clip0_3_1428)"><path d="M71.3254 53.0275V36.2834C71.3254 30.7911 71.3227 26.8163 70.9151 23.7853C70.513 20.7956 69.741 18.9415 68.3605 17.5626L68.3595 17.5616C66.9806 16.1811 65.1265 15.4091 62.1368 15.007C59.1057 14.5994 55.131 14.5966 49.6387 14.5966H41.9279C36.4356 14.5966 32.4609 14.5994 29.4298 15.007C26.4401 15.4091 24.586 16.1811 23.2071 17.5616L23.2062 17.5626C21.8256 18.9415 21.0536 20.7956 20.6516 23.7853C20.244 26.8163 20.2412 30.7911 20.2412 36.2834V55.5604C20.2412 61.0527 20.244 65.0275 20.6516 68.0585C21.0285 70.8612 21.7303 72.666 22.9539 74.0167L23.2062 74.2812L23.2071 74.2822C24.586 75.6627 26.4401 76.4347 29.4298 76.8368C32.4609 77.2444 36.4356 77.2472 41.9279 77.2472H47.1058C50.3768 77.2472 51.6076 77.222 52.6997 76.7709C53.7895 76.3207 54.6728 75.4689 56.99 73.1517L67.23 62.9117C69.545 60.5967 70.3958 59.7104 70.8501 58.6177C71.2999 57.5264 71.3254 56.2952 71.3254 53.0275ZM74.217 53.0275C74.217 56.0637 74.2423 57.9792 73.5214 59.7246L73.5205 59.7284C72.795 61.4731 71.4248 62.8076 69.2754 64.9571L59.0354 75.1971C56.8882 77.3443 55.5506 78.7212 53.8029 79.4431C52.0575 80.164 50.142 80.1387 47.1058 80.1387H41.9279C36.5172 80.1387 32.3125 80.1416 29.0439 79.702C25.734 79.2568 23.1678 78.3339 21.1617 76.3257V76.3247C19.1544 74.3189 18.2314 71.7536 17.7864 68.4445C17.3468 65.1758 17.3496 60.9711 17.3496 55.5604V36.2834C17.3496 30.8727 17.3468 26.668 17.7864 23.3993C18.2315 20.0894 19.1544 17.5232 21.1627 15.5172C23.1686 13.5096 25.7345 12.5869 29.0439 12.1418C32.3125 11.7022 36.5172 11.7051 41.9279 11.7051H49.6387C55.0494 11.7051 59.2541 11.7022 62.5227 12.1418C65.8321 12.5869 68.398 13.5096 70.4039 15.5172L70.7682 15.8994C72.5261 17.8464 73.3629 20.2962 73.7803 23.3993C74.2198 26.668 74.217 30.8727 74.217 36.2834V53.0275Z" fill="white"></path><path d="M50.1205 76.7651V72.9097C50.1205 69.3151 50.1177 66.4746 50.416 64.2566C50.7201 61.9967 51.3603 60.1676 52.8031 58.7248C54.2459 57.282 56.075 56.6418 58.3349 56.3378C60.5529 56.0394 63.3934 56.0422 66.9879 56.0422H70.8434C71.6418 56.0422 72.2891 56.6895 72.2891 57.488C72.2891 58.2865 71.6418 58.9338 70.8434 58.9338H66.9879C63.3114 58.9338 60.7004 58.9365 58.7199 59.203C56.7813 59.4638 55.664 59.9528 54.8475 60.7692C54.0311 61.5857 53.5421 62.703 53.2813 64.6416C53.0148 66.6221 53.0121 69.2331 53.0121 72.9097V76.7651C53.0121 77.5636 52.3648 78.2109 51.5663 78.2109C50.7678 78.2109 50.1205 77.5636 50.1205 76.7651ZM47.7146 42.5483C48.5131 42.5483 49.1604 43.1955 49.1604 43.994C49.1604 44.7925 48.5131 45.4398 47.7146 45.4398H32.293C31.4945 45.4398 30.8472 44.7925 30.8472 43.994C30.8472 43.1956 31.4945 42.5483 32.293 42.5483H47.7146ZM59.2809 27.1266C60.0794 27.1266 60.7267 27.7739 60.7267 28.5724C60.7267 29.3708 60.0794 30.0181 59.2809 30.0181H32.293C31.4945 30.0181 30.8472 29.3708 30.8472 28.5724C30.8472 27.7739 31.4945 27.1266 32.293 27.1266H59.2809ZM59.759 13.1507C59.759 10.4666 58.693 7.89223 56.795 5.99427C54.897 4.09632 52.3227 3.03023 49.6386 3.03023H30.3615C24.8692 3.03023 20.8945 3.03302 17.8634 3.44063C14.8737 3.84269 13.0196 4.6147 11.6407 5.99522L11.6397 5.99616C10.2592 7.3751 9.48722 9.22921 9.08516 12.2189C8.67756 15.2499 8.67477 19.2247 8.67477 24.717V55.5603C8.67477 58.2444 9.74085 60.8188 11.6388 62.7167C13.5368 64.6147 16.1111 65.6807 18.7952 65.6807C19.5937 65.6807 20.241 66.328 20.241 67.1265C20.241 67.8751 19.6721 68.4908 18.943 68.5648L18.7952 68.5723L18.4724 68.5685C15.1384 68.4859 11.9584 67.1252 9.59438 64.7611C7.15415 62.3209 5.7832 59.0113 5.7832 55.5603V24.717C5.7832 19.3063 5.78036 15.1016 6.21995 11.8329C6.66512 8.52302 7.588 5.95683 9.59626 3.95079C11.6022 1.94318 14.1681 1.02052 17.4775 0.575419C20.7461 0.135833 24.9508 0.138672 30.3615 0.138672H49.6386C53.0896 0.138672 56.3992 1.50962 58.8394 3.94985C61.2796 6.39008 62.6506 9.6997 62.6506 13.1507C62.6506 13.9492 62.0033 14.5965 61.2048 14.5965C60.4063 14.5965 59.759 13.9492 59.759 13.1507Z" fill="white"></path></g><defs><clipPath id="clip0_3_1428"><rect width="80" height="80" fill="white" transform="translate(0 0.138672)"></rect></clipPath></defs></svg> 