<?xml version="1.0" encoding="UTF-8"?> <svg xmlns="http://www.w3.org/2000/svg" width="80" height="81" viewBox="0 0 80 81" fill="none"><g clip-path="url(#clip0_6_1546)"><path d="M52.6985 38.6929C55.1955 38.6929 57.1856 38.6907 58.7923 38.867C60.4338 39.0472 61.8114 39.425 63.0542 40.2667C64.2972 41.1085 65.1592 42.2464 65.9362 43.7032C66.6962 45.1283 67.4328 46.9756 68.3615 49.2915H68.3624L71.4497 57.0024V57.0033C73.3481 61.7511 74.8373 65.4634 75.54 68.4115C76.2275 71.2955 76.2444 73.7697 74.895 75.9115L74.76 76.1176C73.2774 78.3054 70.9243 79.2531 67.8984 79.7C64.9008 80.1428 60.9021 80.1387 55.7867 80.1387H24.2131C19.0971 80.1387 15.0982 80.1414 12.1005 79.6982C9.07485 79.2507 6.72233 78.303 5.23977 76.1176C3.75507 73.9288 3.75014 71.3885 4.45976 68.4115C5.16246 65.4634 6.65174 61.7511 8.55013 57.0033V57.0024L11.6374 49.2915C12.5644 46.9752 13.302 45.1287 14.0627 43.7032C14.8404 42.2459 15.703 41.1082 16.9455 40.2667L16.9465 40.2657C18.1902 39.4251 19.5655 39.0473 21.2065 38.867C22.8123 38.6907 24.8015 38.6929 27.3004 38.6929H52.6985ZM10.1167 60.8616C8.75845 64.2962 7.77135 66.9397 7.26011 69.0845C6.62581 71.7457 6.80869 73.294 7.62012 74.4901C8.43385 75.6897 9.81022 76.4369 12.5205 76.8377C15.2588 77.2426 19.0035 77.2471 24.2131 77.2471H38.5599V60.8616H10.1167ZM41.4399 77.2471H55.7867C60.9965 77.2471 64.741 77.243 67.4793 76.8386C70.1891 76.4384 71.565 75.6918 72.3787 74.4911L72.3797 74.4901C73.191 73.294 73.374 71.7456 72.7397 69.0845C72.2284 66.9397 71.2413 64.2961 69.8831 60.8616H41.4399V77.2471ZM41.4399 57.97H68.7337L65.6896 50.3702V50.3693C64.7371 47.9941 64.0648 46.3212 63.3964 45.0681C62.745 43.8467 62.1589 43.1476 61.4436 42.6631C60.7281 42.1787 59.8586 41.893 58.4792 41.7416C57.0649 41.5865 55.2585 41.5845 52.6985 41.5845H41.4399V57.97ZM27.3004 41.5845C24.7387 41.5845 22.9338 41.5865 21.5206 41.7416C20.1434 41.8929 19.2734 42.1772 18.5553 42.6622L18.5562 42.6631C17.8403 43.1479 17.2532 43.8478 16.6015 45.069C15.9329 46.3219 15.2608 47.9949 14.3102 50.3702H14.3093L11.2661 57.97H38.5599V41.5845H27.3004ZM16.9596 27.1266C17.7549 27.1267 18.3996 27.774 18.3996 28.5724C18.3996 29.3709 17.7549 30.0181 16.9596 30.0182H13.1196C12.3243 30.0182 11.6795 29.3709 11.6795 28.5724C11.6795 27.7739 12.3243 27.1266 13.1196 27.1266H16.9596ZM50.08 28.5724C50.08 25.8883 49.0182 23.3139 47.1278 21.416C45.2374 19.518 42.6733 18.4519 39.9999 18.4519C37.3265 18.4519 34.7624 19.518 32.872 21.416C30.9816 23.3139 29.9198 25.8883 29.9198 28.5724C29.9198 29.3709 29.275 30.0181 28.4798 30.0182C27.6845 30.0182 27.0397 29.3709 27.0397 28.5724C27.0397 25.1214 28.4052 21.8118 30.8357 19.3715C33.2662 16.9313 36.5627 15.5604 39.9999 15.5604C43.4371 15.5604 46.7336 16.9313 49.1641 19.3715C51.5946 21.8118 52.9601 25.1214 52.9601 28.5724C52.9601 29.3709 52.3153 30.0181 51.52 30.0182C50.7247 30.0182 50.08 29.3709 50.08 28.5724ZM66.8802 27.1266L67.0274 27.1342C67.7535 27.2082 68.3203 27.8238 68.3203 28.5724C68.3203 29.321 67.7535 29.9366 67.0274 30.0107L66.8802 30.0182H63.0402C62.2449 30.0182 61.6002 29.3709 61.6002 28.5724C61.6002 27.7739 62.2449 27.1266 63.0402 27.1266H66.8802ZM19.9737 8.46604C20.5009 7.93682 21.3347 7.9033 21.9003 8.36627L22.01 8.46604L24.725 11.1919L24.8235 11.3011C25.2849 11.869 25.2522 12.707 24.725 13.2364C24.1977 13.7658 23.3631 13.7985 22.7975 13.3352L22.6878 13.2364L19.9737 10.5105L19.8743 10.4003C19.4132 9.83248 19.4466 8.9953 19.9737 8.46604ZM57.9861 8.46604C58.5484 7.90143 59.46 7.90143 60.0223 8.46604C60.5846 9.03066 60.5847 9.94589 60.0223 10.5105L57.3073 13.2364C56.7449 13.8007 55.8333 13.8008 55.271 13.2364C54.7087 12.6718 54.7089 11.7566 55.271 11.1919L57.9861 8.46604ZM38.5599 5.43988V1.58446C38.5599 0.785971 39.2046 0.138672 39.9999 0.138672C40.7952 0.138718 41.4399 0.785999 41.4399 1.58446V5.43988C41.4399 6.23833 40.7952 6.88561 39.9999 6.88566C39.2046 6.88566 38.5599 6.23836 38.5599 5.43988Z" fill="white"></path></g><defs><clipPath id="clip0_6_1546"><rect width="80" height="80" fill="white" transform="translate(0 0.138672)"></rect></clipPath></defs></svg> 