<?xml version="1.0" encoding="UTF-8"?> <svg xmlns="http://www.w3.org/2000/svg" width="80" height="81" viewBox="0 0 80 81" fill="none"><g clip-path="url(#clip0_6_1611)"><path d="M69.1343 65.1989C69.1343 63.8142 68.5041 62.3806 67.1343 60.951C65.7579 59.5146 63.6967 58.1548 61.0392 56.9817C55.7278 54.6371 48.2903 53.1507 40 53.1507C31.7097 53.1507 24.2722 54.6371 18.9608 56.9817C16.3033 58.1548 14.2421 59.5146 12.8657 60.951C11.4959 62.3806 10.8657 63.8142 10.8657 65.1989C10.8657 66.5836 11.4959 68.0172 12.8657 69.4468C14.2421 70.8832 16.3033 72.243 18.9608 73.4162C24.2722 75.7607 31.7097 77.2471 40 77.2471C48.2903 77.2471 55.7278 75.7607 61.0392 73.4162C63.6967 72.243 65.7579 70.8832 67.1343 69.4468C68.5041 68.0172 69.1343 66.5836 69.1343 65.1989ZM69.1343 21.3971C67.4211 23.163 65.0289 24.6904 62.1884 25.9444C56.4364 28.4836 48.5902 30.0182 40 30.0182C31.4098 30.0182 23.5636 28.4836 17.8116 25.9444C14.9711 24.6904 12.5789 23.163 10.8657 21.3971V58.8802C12.5789 57.1144 14.9711 55.5869 17.8116 54.333C23.5636 51.7938 31.4098 50.2592 40 50.2592C48.5902 50.2592 56.4364 51.7938 62.1884 54.333C65.0289 55.5869 67.4211 57.1144 69.1343 58.8802V21.3971ZM69.1343 15.0784C69.1343 13.6937 68.5041 12.2601 67.1343 10.8305C65.7579 9.3941 63.6967 8.03434 61.0392 6.86119C55.7278 4.51661 48.2903 3.03024 40 3.03024C31.7097 3.03024 24.2722 4.51661 18.9608 6.86119C16.3033 8.03434 14.2421 9.3941 12.8657 10.8305C11.4959 12.2601 10.8657 13.6937 10.8657 15.0784C10.8657 16.4632 11.4959 17.8968 12.8657 19.3264C14.2421 20.7628 16.3033 22.1225 18.9608 23.2957C24.2722 25.6403 31.7097 27.1266 40 27.1266C48.2903 27.1266 55.7278 25.6403 61.0392 23.2957C63.6967 22.1225 65.7579 20.7628 67.1343 19.3264C68.5041 17.8968 69.1343 16.4632 69.1343 15.0784ZM72 65.1989C72 67.5404 70.9189 69.6573 69.195 71.4564C67.4778 73.2486 65.0621 74.7963 62.1884 76.0649C56.4364 78.6041 48.5902 80.1387 40 80.1387C31.4098 80.1387 23.5636 78.6041 17.8116 76.0649C14.9379 74.7963 12.5222 73.2486 10.805 71.4564C9.08111 69.6573 8 67.5404 8 65.1989V15.0784C8 12.7369 9.08111 10.6201 10.805 8.8209C12.5222 7.02878 14.9379 5.48107 17.8116 4.21247C23.5636 1.67328 31.4098 0.138672 40 0.138672C48.5902 0.138672 56.4364 1.67328 62.1884 4.21247C65.0621 5.48107 67.4778 7.02878 69.195 8.8209C70.9189 10.6201 72 12.7369 72 15.0784V65.1989Z" fill="white"></path></g><defs><clipPath id="clip0_6_1611"><rect width="80" height="80" fill="white" transform="translate(0 0.138672)"></rect></clipPath></defs></svg> 