<?xml version="1.0" encoding="UTF-8"?> <svg xmlns="http://www.w3.org/2000/svg" width="80" height="81" viewBox="0 0 80 81" fill="none"><g clip-path="url(#clip0_6_1562)"><g clip-path="url(#clip1_6_1562)"><path d="M80.0667 40.7313C79.73 42.2911 79.2721 43.7987 78.2873 45.0972C76.8759 46.9602 75.0421 48.1834 72.7442 48.6121C72.1169 48.7313 71.9078 49.0031 71.7949 49.5802C70.8749 54.3371 69.8775 59.0773 68.9993 63.8425C68.211 68.1164 65.8315 70.8744 61.6266 72.0328C61.5607 72.06 61.4977 72.0936 61.4384 72.1332C61.4384 74.0568 61.4384 76.0098 61.4384 77.9627C61.4384 79.2361 61.0202 79.6522 59.7531 79.6627C58.8665 79.671 57.98 79.671 57.0934 79.6627C56.0479 79.6627 55.7343 79.4347 55.3621 78.4332C54.6826 76.6036 53.9905 74.7761 53.3402 72.9361C53.1708 72.4531 52.9638 72.244 52.4097 72.2461C44.1421 72.2642 35.8745 72.2642 27.6069 72.2461C27.0695 72.2461 26.8374 72.4196 26.6617 72.9193C26.0073 74.7866 25.2838 76.6287 24.6273 78.4959C24.3303 79.3323 23.7909 79.6961 22.921 79.671C22.0512 79.6459 21.1479 79.671 20.2614 79.671C18.9817 79.671 18.5635 79.2528 18.5614 77.9983C18.5614 76.0453 18.5614 74.0903 18.5614 72.3381C17.2044 71.6292 15.885 71.1065 14.7538 70.3161C12.3576 68.6434 11.3874 66.1342 10.8772 63.3428C10.0408 58.7323 9.08314 54.1426 8.17776 49.5425C8.09203 49.1097 8.02512 48.7856 7.42292 48.6685C3.00893 47.7841 -0.0543102 44.0977 -0.0668558 39.7067C-0.0794015 35.2864 2.96084 31.6315 7.46056 30.7156C8.00212 30.6048 8.02512 30.2974 8.05857 29.8793C8.49045 24.1515 10.5187 18.6593 13.9132 14.0257C19.448 6.43554 26.8771 1.89818 36.2425 0.815064C52.3428 -1.02079 66.8435 8.90495 71.0254 24.5181C71.475 26.1908 71.6841 27.9409 71.9245 29.666C72.0144 30.3121 72.1336 30.6257 72.8801 30.7742C76.4535 31.4956 79.2763 34.494 79.9224 38.1092C79.9589 38.2567 80.0079 38.4008 80.0688 38.54L80.0667 40.7313ZM25.173 56.8107C29.9654 54.8933 34.8687 53.8269 39.9874 53.8227C45.106 53.8185 50.0448 54.8975 54.8122 56.796C54.9209 56.5263 54.992 56.3611 55.0568 56.1918C57.4907 49.6541 59.9232 43.115 62.3542 36.5745C63.4645 33.5928 65.591 31.7318 68.6271 30.8704L69.4175 30.6508C68.7651 15.7695 55.4081 1.67863 37.4364 3.19665C20.7005 4.61014 10.7894 19.0063 10.62 30.6299C14.3314 31.6754 16.4976 33.4778 17.6121 36.4846C19.3476 41.1418 21.0775 45.8018 22.8019 50.4646C23.5797 52.5577 24.3659 54.6507 25.173 56.8107ZM39.9978 69.7557H42.2665C47.8995 69.7557 53.5325 69.7683 59.1656 69.7557C62.9481 69.7432 65.6768 67.5812 66.4107 64.0245C66.969 61.3209 67.4813 58.6089 68.0145 55.899C68.5476 53.1892 69.085 50.4312 69.6307 47.6983C69.8398 46.6529 70.1221 46.4187 71.199 46.3183C71.4081 46.2995 71.6171 46.2702 71.8262 46.2451C72.9885 46.0891 74.0884 45.6273 75.0138 44.907C75.9391 44.1867 76.6566 43.2337 77.0931 42.1453C77.5295 41.0569 77.6692 39.8721 77.4979 38.712C77.3265 37.552 76.8503 36.4582 76.1179 35.5424C75.3854 34.6267 74.423 33.9217 73.329 33.4997C72.2349 33.0776 71.0484 32.9536 69.8907 33.1402C68.733 33.3268 67.6456 33.8174 66.7396 34.5618C65.8335 35.3063 65.1413 36.2779 64.7337 37.3774C62.1215 44.3779 59.5175 51.3805 56.922 58.3852C56.4076 59.7652 55.9037 59.9847 54.5508 59.4097C50.6238 57.7035 46.4322 56.6864 42.1599 56.4029C36.3533 56.0475 30.8018 57.141 25.4657 59.4055C24.1045 59.9806 23.5985 59.7652 23.0883 58.3956C20.4886 51.4132 17.8902 44.4337 15.2933 37.4569C14.0387 34.0821 10.5886 32.3278 7.22428 33.3126C5.74619 33.7435 4.46322 34.6736 3.59393 35.9444C2.72465 37.2151 2.32283 38.7479 2.45692 40.2817C2.7622 43.5415 5.28597 45.9796 8.71513 46.3058C9.9007 46.4208 10.1621 46.6403 10.3879 47.7694C10.9803 50.7595 11.5679 53.7495 12.1506 56.7396C12.6252 59.1525 13.0852 61.5906 13.587 64.014C14.3272 67.5937 17.0685 69.7453 20.9054 69.7516C27.2758 69.7641 33.6399 69.7655 39.9978 69.7557ZM21.1061 77.3166C21.679 77.1368 22.3732 77.1201 22.4945 76.8482C23.1406 75.3846 23.6466 73.8728 24.2258 72.3067H21.1061V77.3166ZM55.7699 72.2983C56.2717 73.6533 56.7317 74.8911 57.1896 76.1311C57.6078 77.2769 57.6078 77.2769 58.8937 77.0573V72.3067L55.7699 72.2983Z" fill="white"></path><path d="M51.5671 31.3744C51.5671 32.0979 51.0423 32.5725 50.1557 32.6143C47.5608 32.7335 45.3465 33.6933 43.5964 35.6232C42.1547 37.1941 41.3238 39.2297 41.2545 41.3608C41.2064 42.377 40.7841 42.9165 40 42.9227C39.2159 42.929 38.7768 42.3937 38.7454 41.3775C38.5656 36.6854 34.9148 32.9614 30.1725 32.6332C29.9906 32.6206 29.8087 32.6332 29.6268 32.6018C28.92 32.5223 28.4475 32.0372 28.437 31.387C28.4372 31.0702 28.5557 30.765 28.7692 30.531C28.9827 30.297 29.2758 30.1511 29.5912 30.1219C30.1307 30.0488 30.6827 30.0508 31.2201 29.9609C33.2681 29.6171 35.135 28.5778 36.5062 27.0181C37.8773 25.4584 38.6689 23.4737 38.7475 21.3985C38.7475 21.2939 38.7475 21.1894 38.7475 21.0869C38.8039 20.33 39.2807 19.8177 39.9519 19.7906C40.1224 19.7857 40.2922 19.8156 40.4508 19.8786C40.6094 19.9415 40.7535 20.0362 40.8743 20.1568C40.995 20.2773 41.0899 20.4213 41.1532 20.5798C41.2164 20.7383 41.2466 20.908 41.242 21.0786C41.25 22.6192 41.6555 24.1316 42.4192 25.4696C44.1233 28.353 46.6617 29.9024 50.0135 30.0885C50.9942 30.1512 51.5796 30.6112 51.5671 31.3744ZM34.9336 31.3744C37.0963 32.5091 38.862 34.2756 39.9958 36.4387C41.1309 34.2743 42.8941 32.5038 45.0538 31.3598C42.9055 30.2184 41.1433 28.4664 39.9895 26.3248C38.8473 28.4769 37.0862 30.2373 34.9336 31.3786V31.3744Z" fill="white"></path></g></g><defs><clipPath id="clip0_6_1562"><rect width="80" height="80" fill="white" transform="translate(0 0.138672)"></rect></clipPath><clipPath id="clip1_6_1562"><rect width="80.1335" height="79.0651" fill="white" transform="translate(-0.0668945 0.605957)"></rect></clipPath></defs></svg> 