<?xml version="1.0" encoding="UTF-8"?> <svg xmlns="http://www.w3.org/2000/svg" width="80" height="81" viewBox="0 0 80 81" fill="none"><g clip-path="url(#clip0_6_1622)"><path d="M77.5006 0.593626C78.0478 0.0122023 78.9636 -0.0156602 79.545 0.531503C80.1265 1.07873 80.1543 1.99446 79.6072 2.57592L46.1499 38.1226C47.8272 39.7833 48.9806 40.9347 49.5723 42.5381L49.5742 42.5428C50.1892 44.2248 50.0347 45.7397 49.8406 48.0031C48.8848 59.1188 45.0858 67.06 41.4953 72.2368C39.7024 74.8218 37.9642 76.714 36.6638 77.9672C36.0136 78.5937 35.4722 79.061 35.0872 79.3762C34.8947 79.5338 34.7411 79.6533 34.6326 79.7358L34.4669 79.86C34.4622 79.8634 34.4578 79.8662 34.4547 79.8685C34.4531 79.8696 34.4511 79.8705 34.45 79.8713L34.449 79.8723C34.4483 79.8728 34.4471 79.8732 33.6122 78.6929L34.4471 79.8732C34.1041 80.1158 33.6727 80.1973 33.2649 80.0963C24.4959 77.9243 16.681 74.09 10.7959 67.1549C4.91401 60.2234 1.09118 50.3486 0.00433951 36.3437C-0.0341797 35.8465 0.185663 35.3643 0.586983 35.0682C0.988389 34.7722 1.5145 34.7038 1.97817 34.8875C10.1623 38.1315 18.2821 38.8079 28.5416 34.8696C30.9591 33.9429 32.8585 33.2139 34.3869 32.7735C35.8168 32.3614 37.0947 32.1461 38.3063 32.3386L38.5482 32.3828L38.5539 32.3838C39.8074 32.6477 40.8782 33.292 41.9857 34.191C42.624 34.7092 43.3127 35.3472 44.0876 36.0952L77.5006 0.593626ZM37.9646 35.2151C37.376 35.0939 36.5714 35.1531 35.187 35.5521C33.8057 35.9501 32.0418 36.623 29.5761 37.5682C19.4932 41.4386 11.1944 41.1492 3.09169 38.3787C4.36401 50.7474 7.92671 59.3046 13.0004 65.2837C18.2287 71.445 25.1845 75.0142 33.2818 77.1163C33.61 76.8465 34.0834 76.4387 34.658 75.8851C35.839 74.747 37.4486 72.9987 39.1196 70.5896C42.4571 65.7776 46.0517 58.3113 46.9594 47.7555C47.1678 45.3247 47.2106 44.5009 46.8577 43.5358V43.5349C46.5046 42.5814 45.8323 41.877 43.8363 39.8988L42.7227 38.7994C41.6885 37.7847 40.8781 37.016 40.1634 36.4359C39.2317 35.6796 38.5813 35.3453 37.9646 35.2141V35.2151Z" fill="white"></path><path d="M28.5284 51.7617C29.1507 51.3746 29.9769 51.5145 30.4344 52.1071C30.9223 52.7392 30.8057 53.6467 30.1737 54.1346C24.5791 58.4536 18.9696 60.0804 14.7492 60.6218C12.641 60.8922 10.8775 60.8926 9.63151 60.8232C9.00822 60.7885 8.51279 60.7361 8.1669 60.6914C7.99401 60.6691 7.85806 60.6487 7.76216 60.6331C7.71428 60.6253 7.67597 60.6182 7.64827 60.6133C7.63459 60.6109 7.62299 60.6093 7.61438 60.6077C7.61037 60.6069 7.60691 60.6063 7.60403 60.6058C7.60251 60.6055 7.60051 60.6051 7.59932 60.6048L7.59838 60.6039C7.59881 60.5981 7.61458 60.5107 7.87135 59.1845C7.88528 59.1125 7.89833 59.0441 7.91088 58.9793L7.5965 60.6039C6.81261 60.4521 6.30015 59.6935 6.45192 58.9096C6.60357 58.1267 7.36052 57.6142 8.14337 57.7641C8.14395 57.7642 8.14501 57.7648 8.1462 57.7651H8.14525C8.14746 57.7655 8.15152 57.766 8.15655 57.7669C8.17004 57.7693 8.19345 57.7738 8.2262 57.7792C8.29238 57.7899 8.39715 57.8052 8.53776 57.8234C8.81935 57.8598 9.24449 57.9049 9.79247 57.9354C10.8892 57.9965 12.4733 57.9985 14.3811 57.7538C18.1928 57.2648 23.2924 55.7939 28.4069 51.8455L28.5284 51.7617ZM23.5604 19.7908C23.5603 18.7542 23.1487 17.7603 22.4158 17.0273C21.6828 16.2943 20.6888 15.8819 19.6522 15.8818C18.6155 15.8818 17.6208 16.2942 16.8877 17.0273C16.1548 17.7603 15.7432 18.7542 15.7431 19.7908C15.7431 20.8275 16.1547 21.8222 16.8877 22.5553C17.6208 23.2883 18.6156 23.6999 19.6522 23.6999C20.6887 23.6998 21.6828 23.2881 22.4158 22.5553C23.1489 21.8222 23.5604 20.8275 23.5604 19.7908ZM34.2701 6.2969V5.86863C34.2701 5.07022 34.9175 4.42297 35.7159 4.42285C36.5143 4.42285 37.1616 5.07015 37.1616 5.86863V6.2969C37.1616 7.09538 36.5143 7.74268 35.7159 7.74268C34.9175 7.74257 34.2701 7.09531 34.2701 6.2969ZM26.4519 19.7908C26.4519 21.5944 25.7356 23.3244 24.4602 24.5997C23.185 25.8748 21.4556 26.5913 19.6522 26.5914C17.8487 26.5914 16.1186 25.875 14.8433 24.5997C13.568 23.3244 12.8516 21.5944 12.8516 19.7908C12.8516 17.9873 13.568 16.2572 14.8433 14.9819C16.1186 13.7067 17.8487 12.9902 19.6522 12.9902C21.4555 12.9903 23.185 13.7069 24.4602 14.9819C25.7355 16.2572 26.4519 17.9873 26.4519 19.7908Z" fill="white"></path></g><defs><clipPath id="clip0_6_1622"><rect width="80" height="80" fill="white" transform="translate(0 0.138672)"></rect></clipPath></defs></svg> 