<?xml version="1.0" encoding="UTF-8"?> <svg xmlns="http://www.w3.org/2000/svg" width="80" height="81" viewBox="0 0 80 81" fill="none"><g clip-path="url(#clip0_8_417)"><path d="M43.2944 0.140724C50.7555 0.149988 56.6484 0.225606 61.345 0.856084C66.5849 1.55952 70.5384 2.97529 73.6332 5.90973L73.9297 6.19869L73.9316 6.19963C76.2305 8.49868 77.6458 11.2876 78.5249 14.7576L78.6934 15.4607L78.7188 15.6066C78.808 16.3337 78.3341 17.0248 77.6044 17.1908C76.8257 17.3677 76.0503 16.8794 75.8734 16.1008C75.0972 12.6849 73.8579 10.216 71.8871 8.245C69.3759 5.73937 66.0486 4.40534 60.96 3.72223C55.8297 3.03352 49.1293 3.0304 40 3.0304C35.9766 3.0295 32.4243 3.02956 29.2705 3.08876V77.1784C32.4242 77.2381 35.9763 77.2386 40 77.2386C49.1273 77.2386 55.8288 77.2355 60.96 76.5459C66.0495 75.8618 69.3772 74.5263 71.8862 72.0175C73.8574 70.0463 75.0971 67.577 75.8734 64.1607C76.0503 63.3821 76.8257 62.8938 77.6044 63.0707C78.3828 63.2478 78.8702 64.0223 78.6934 64.8008C77.8302 68.5998 76.3837 71.6096 73.9316 74.0619C70.7955 77.1979 66.7551 78.6848 61.345 79.412C55.9764 80.1336 49.0456 80.1302 40 80.1302C35.6341 80.1302 31.7611 80.1296 28.3189 80.0492C28.1645 80.1055 27.9985 80.1387 27.8247 80.1387C27.6223 80.1386 27.4301 80.0961 27.2552 80.021C24.0093 79.926 21.1606 79.7491 18.653 79.412C13.2434 78.6848 9.20429 77.1978 6.06833 74.0619C2.93247 70.9259 1.44536 66.8861 0.718184 61.4762C0.458829 59.5466 0.295111 57.4147 0.189194 55.0559C0.0695507 54.8455 6.64215e-05 54.6027 0 54.3434C0 54.125 0.0497785 53.9181 0.136483 53.7325C0.000491946 49.8268 0 45.3274 0 40.1303C-5.97235e-08 34.9393 0.000960625 30.4452 0.136483 26.5432C0.0503289 26.3581 5.18023e-05 26.1527 0 25.9351C0 25.6757 0.0686375 25.4321 0.188253 25.2216C0.294133 22.8573 0.458309 20.7213 0.718184 18.7881C1.44537 13.3789 2.93237 9.33938 6.06833 6.2034C9.2044 3.06733 13.2447 1.58086 18.6549 0.854202C21.1695 0.516464 24.0268 0.339492 27.2835 0.245204C27.4508 0.177526 27.6331 0.138865 27.8247 0.138842C27.9886 0.138842 28.1456 0.168573 28.2925 0.218849C31.7416 0.138421 35.6232 0.137864 40 0.138842L43.2944 0.140724ZM3.11841 55.7891C3.22069 57.7272 3.36865 59.4856 3.58433 61.0903C4.26845 66.1801 5.60463 69.5084 8.11369 72.0175C10.6227 74.5263 13.9493 75.8618 19.038 76.5459C21.188 76.8349 23.6143 77.0021 26.3789 77.1003V55.7891H3.11841ZM77.6411 26.8425C78.2089 26.3791 79.0469 26.412 79.5763 26.9413C80.1409 27.5059 80.1409 28.4221 79.5763 28.9867L68.4233 40.1388L79.5763 51.2918L79.6752 51.401C80.1386 51.9688 80.1058 52.8068 79.5763 53.3362C79.0469 53.8656 78.209 53.8985 77.6411 53.435L77.5319 53.3362L66.3789 42.1832L55.2258 53.3362C54.6612 53.9006 53.7459 53.9007 53.1814 53.3362C52.617 52.7717 52.6171 51.8564 53.1814 51.2918L64.3335 40.1388L53.1814 28.9867L53.0826 28.8765C52.6193 28.3087 52.652 27.4707 53.1814 26.9413C53.7459 26.3768 54.6612 26.3771 55.2258 26.9413L66.3789 38.0943L77.5319 26.9413L77.6411 26.8425ZM26.3789 3.16594C23.615 3.2637 21.1896 3.43067 19.0399 3.71941C13.9505 4.40298 10.6227 5.73905 8.11369 8.24782C5.60455 10.757 4.26842 14.0844 3.58433 19.1731C3.36805 20.7819 3.21978 22.5452 3.11747 24.4893H26.3789V3.16594ZM2.89156 40.1303C2.89156 45.0447 2.89322 49.2562 3.00169 52.8976H26.3789V27.3809H3.00169C2.8937 31.018 2.89156 35.2233 2.89156 40.1303Z" fill="white"></path></g><defs><clipPath id="clip0_8_417"><rect width="80" height="80" fill="white" transform="translate(0 0.138672)"></rect></clipPath></defs></svg> 