<?xml version="1.0" encoding="UTF-8"?> <svg xmlns="http://www.w3.org/2000/svg" width="18" height="31" viewBox="0 0 18 31" fill="none"><path d="M12.1393 5.87758C12.1393 5.21306 12.1383 4.76641 12.1148 4.42091C12.092 4.08689 12.0516 3.92285 12.0072 3.81453L11.9336 3.65783C11.7712 3.35478 11.5226 3.10614 11.2195 2.9438L11.0628 2.87022C10.9572 2.82636 10.7935 2.78551 10.4565 2.76257C10.1106 2.73907 9.66397 2.73805 8.99979 2.73805C8.33528 2.73805 7.88882 2.73904 7.54312 2.76257C7.2073 2.78543 7.04375 2.82602 6.93675 2.87022C6.50957 3.04724 6.16945 3.38735 5.99243 3.81453C5.94796 3.92285 5.90757 4.08689 5.88479 4.42091C5.86126 4.76641 5.86026 5.21306 5.86026 5.87758V17.0404C5.86026 17.3696 5.70518 17.6794 5.44193 17.877C4.44634 18.6237 3.71053 19.6652 3.33936 20.8531C2.96829 22.041 2.97997 23.3161 3.37343 24.4968C3.76702 25.6775 4.52215 26.7055 5.53186 27.4333C6.54157 28.161 7.75514 28.552 8.99979 28.552C10.2444 28.552 11.458 28.161 12.4677 27.4333C13.4774 26.7055 14.2326 25.6775 14.6262 24.4968C15.0196 23.3161 15.0313 22.041 14.6602 20.8531C14.2891 19.6652 13.5532 18.6237 12.5577 17.877C12.2944 17.6794 12.1393 17.3696 12.1393 17.0404V5.87758ZM14.2324 16.5403C15.3671 17.5166 16.2093 18.7933 16.6579 20.229C17.16 21.8363 17.144 23.5615 16.6115 25.159C16.079 26.7565 15.0575 28.1465 13.6914 29.1311C12.3253 30.1157 10.6837 30.645 8.99979 30.645C7.31588 30.645 5.67428 30.1157 4.3082 29.1311C2.94212 28.1465 1.92056 26.7565 1.38806 25.159C0.855547 23.5615 0.839629 21.8363 1.34173 20.229C1.7903 18.7933 2.63248 17.5166 3.76723 16.5403V5.87758C3.76723 5.24163 3.76636 4.7123 3.79585 4.2792C3.82599 3.83669 3.89151 3.41841 4.05884 3.0133L4.221 2.66991C4.63765 1.8919 5.31306 1.27744 6.13551 0.936628L6.44211 0.828979C6.75125 0.738624 7.06979 0.696211 7.40141 0.673638C7.83459 0.644176 8.36406 0.645022 8.99979 0.645022C9.63575 0.645022 10.1661 0.644149 10.5995 0.673638C11.0416 0.703738 11.4605 0.768491 11.8654 0.936628C12.6876 1.2775 13.362 1.8921 13.7786 2.66991L13.9407 3.0133C14.1081 3.41841 14.1736 3.83669 14.2037 4.2792C14.2332 4.7123 14.2324 5.24163 14.2324 5.87758V16.5403Z" fill="white"></path><path d="M10.744 22.6217C10.744 22.1592 10.5601 21.7156 10.233 21.3885C9.9059 21.0614 9.46239 20.8776 8.99981 20.8776C8.53722 20.8776 8.09371 21.0614 7.76661 21.3885C7.43951 21.7156 7.25562 22.1592 7.25562 22.6217C7.25562 23.0843 7.43951 23.5278 7.76661 23.8549C8.09371 24.182 8.53722 24.3659 8.99981 24.3659C9.46239 24.3659 9.9059 24.182 10.233 23.8549C10.5601 23.5278 10.744 23.0843 10.744 22.6217ZM12.837 22.6217C12.837 23.6394 12.4324 24.6152 11.7128 25.3348C10.9932 26.0544 10.0175 26.4589 8.99981 26.4589C7.98211 26.4589 7.0064 26.0544 6.28678 25.3348C5.56716 24.6152 5.1626 23.6394 5.1626 22.6217C5.1626 21.604 5.56716 20.6283 6.28678 19.9087C6.75372 19.4418 7.32912 19.1102 7.9533 18.9331V10.0636C7.9533 9.48563 8.42183 9.01709 8.99981 9.01709C9.57778 9.01709 10.0463 9.48563 10.0463 10.0636V18.9331C10.6705 19.1102 11.2459 19.4418 11.7128 19.9087C12.4324 20.6283 12.837 21.604 12.837 22.6217Z" fill="white"></path></svg> 