<?xml version="1.0" encoding="UTF-8"?> <svg xmlns="http://www.w3.org/2000/svg" width="30" height="31" viewBox="0 0 30 31" fill="none"><path d="M3.33335 25.645C3.33335 26.4779 3.33632 26.9347 3.37892 27.2515C3.37943 27.2553 3.38003 27.2592 3.38055 27.2628C3.3848 27.2634 3.38912 27.2655 3.39357 27.2661C3.71036 27.3087 4.16717 27.3117 5.00001 27.3117H6.66668C7.49952 27.3117 7.95633 27.3087 8.27312 27.2661C8.27702 27.2656 8.28077 27.2634 8.28452 27.2628C8.28504 27.2591 8.28725 27.2553 8.28777 27.2515C8.33037 26.9347 8.33334 26.4779 8.33334 25.645V22.3117H5.00001C4.16717 22.3117 3.71036 22.3147 3.39357 22.3573C3.3892 22.3578 3.38473 22.3583 3.38055 22.3589C3.37996 22.3631 3.37951 22.3675 3.37892 22.3719C3.33632 22.6887 3.33335 23.1455 3.33335 23.9783V25.645ZM30 10.645H26.6667V6.33512L11.6667 21.3351V25.645C11.6667 26.3836 11.6696 27.1051 11.5902 27.6958C11.5042 28.3347 11.2953 29.0632 10.6901 29.6684C10.0849 30.2736 9.35642 30.4826 8.71746 30.5685C8.12677 30.648 7.40531 30.645 6.66668 30.645H5.00001C4.26138 30.645 3.53992 30.648 2.94923 30.5685C2.31027 30.4826 1.58178 30.2736 0.976576 29.6684C0.371372 29.0632 0.162469 28.3347 0.0765115 27.6958C-0.00294019 27.1051 1.41571e-05 26.3836 1.41571e-05 25.645V23.9783C1.41571e-05 23.2397 -0.0029403 22.5182 0.0765115 21.9276C0.162469 21.2886 0.371372 20.5601 0.976576 19.9549L1.20932 19.7466C1.76292 19.2999 2.39013 19.1301 2.94923 19.0548C3.53992 18.9754 4.26138 18.9783 5.00001 18.9783H9.30991L24.3099 3.97835H20V0.64502H30V10.645Z" fill="white"></path></svg> 