<?xml version="1.0" encoding="UTF-8"?> <svg xmlns="http://www.w3.org/2000/svg" width="30" height="31" viewBox="0 0 30 31" fill="none"><path d="M15 2.31169L11.5167 5.79502L15 9.27835M2.11667 0.64502L0 2.76169L7.88333 10.645H0V20.645H6.66667L15 28.9784V17.7617L22.0833 24.8617C20.9667 25.7117 19.7167 26.4117 18.3333 26.8117V30.2617C20.6333 29.7284 22.7167 28.6784 24.4667 27.245L27.8833 30.645L30 28.5284L15 13.5284M26.6667 15.645C26.6667 17.2117 26.3333 18.6784 25.7667 20.045L28.2833 22.5617C29.4091 20.4299 29.9983 18.0558 30 15.645C30 8.51169 25 2.54502 18.3333 1.02835V4.46169C23.15 5.89502 26.6667 10.3617 26.6667 15.645ZM22.5 15.645C22.5 12.695 20.8333 10.1617 18.3333 8.92835V12.6117L22.4167 16.695C22.5 16.3617 22.5 15.995 22.5 15.645Z" fill="white"></path></svg> 