<?xml version="1.0" encoding="UTF-8"?> <svg xmlns="http://www.w3.org/2000/svg" width="20" height="17" viewBox="0 0 20 17" fill="none"><path d="M3.498 1H2.5C1.67157 1 1 1.67157 1 2.5V14.5C1 15.3284 1.67157 16 2.5 16H3.498C4.32643 16 4.998 15.3284 4.998 14.5V2.5C4.998 1.67157 4.32643 1 3.498 1Z" stroke="white" stroke-linecap="round" stroke-linejoin="round"></path><path d="M9.94899 1H8.95099C8.12256 1 7.45099 1.67157 7.45099 2.5V14.5C7.45099 15.3284 8.12256 16 8.95099 16H9.94899C10.7774 16 11.449 15.3284 11.449 14.5V2.5C11.449 1.67157 10.7774 1 9.94899 1Z" stroke="white" stroke-linecap="round" stroke-linejoin="round"></path><path d="M13.517 4.87392C13.352 4.25892 13.717 3.62692 14.331 3.46292L15.369 3.18492C15.983 3.01992 16.614 3.38492 16.779 3.99892L19.46 14.0129C19.4993 14.159 19.5094 14.3113 19.4898 14.4612C19.4701 14.6112 19.4211 14.7558 19.3455 14.8868C19.2699 15.0177 19.1692 15.1325 19.0491 15.2245C18.9291 15.3165 18.7921 15.3839 18.646 15.4229L17.608 15.7019C17.4619 15.7412 17.3095 15.7513 17.1595 15.7316C17.0095 15.7118 16.8649 15.6627 16.7339 15.587C16.6029 15.5113 16.4882 15.4105 16.3962 15.2904C16.3042 15.1702 16.2369 15.0331 16.198 14.8869L13.517 4.87392Z" stroke="white" stroke-linecap="round" stroke-linejoin="round"></path></svg> 