<?xml version="1.0" encoding="UTF-8"?> <svg xmlns="http://www.w3.org/2000/svg" width="20" height="17" viewBox="0 0 20 17" fill="none"><path d="M5.94 5.945H14.56M5.94 5.945H1M5.94 5.945L9.59 15.996M5.94 5.945L8.34 2.012L8.89 1M14.56 5.945H19.5M14.56 5.945L10.91 15.996M14.56 5.945L12.16 2.012L11.594 1M1 5.945C1 6.365 1.079 6.785 1.236 7.181C1.448 7.716 1.878 8.209 2.736 9.194L6.203 13.17C7.6 14.772 8.298 15.574 9.126 15.868C9.27867 15.922 9.43333 15.9647 9.59 15.996M1 5.945C1 5.525 1.079 5.105 1.236 4.708C1.448 4.173 1.878 3.681 2.736 2.695C3.203 2.161 3.436 1.894 3.706 1.687C4.10742 1.38107 4.5726 1.1695 5.067 1.068C5.401 1 5.755 1 6.464 1H8.89M9.59 15.996C10.0258 16.0822 10.4742 16.0822 10.91 15.996M8.89 1H11.594M19.5 5.945C19.5 6.365 19.421 6.785 19.264 7.181C19.052 7.716 18.622 8.209 17.764 9.194L14.297 13.17C12.9 14.772 12.202 15.574 11.374 15.868C11.2226 15.9216 11.0675 15.9643 10.91 15.996M19.5 5.945C19.5 5.525 19.421 5.105 19.264 4.708C19.052 4.173 18.622 3.681 17.764 2.695C17.297 2.161 17.064 1.894 16.794 1.687C16.3926 1.38107 15.9274 1.1695 15.433 1.068C15.099 1 14.745 1 14.036 1H11.594" stroke="white" stroke-linecap="round" stroke-linejoin="round"></path></svg> 