<?xml version="1.0" encoding="UTF-8"?> <svg xmlns="http://www.w3.org/2000/svg" width="16" height="16" viewBox="0 0 16 16" fill="none"><g clip-path="url(#clip0_95_391)"><path d="M13.0088 6.49681C12.8785 6.49681 12.4587 6.49431 12.004 6.49106L12.0057 5.49156C12.0057 4.93931 11.558 4.49156 11.0057 4.49156L0.997986 4.48906C0.445736 4.48906 -0.00201416 4.93681 -0.00201416 5.48906V13.0038C-0.00201416 14.6606 1.34122 16.0038 2.99799 16.0038H9.00824C10.665 16.0038 11.9927 14.6606 11.9927 13.0038L11.9937 12.4906C12.4472 12.4941 12.9095 12.4968 13.009 12.4968C14.6618 12.4968 16.0023 11.1681 16.0023 9.51131C16.002 7.85431 14.6615 6.49681 13.0088 6.49681ZM10.9927 13.0038C10.9927 14.1068 10.1115 15.0038 9.00821 15.0038H2.99795C1.89495 15.0038 0.997955 14.1068 0.997955 13.0038L0.996455 5.48906L11.0057 5.49206L10.9927 13.0038ZM13.0087 11.5113C12.9095 11.5113 12.448 11.5083 11.9953 11.5051L12.0023 7.49234C12.4573 7.49559 12.878 7.49809 13.0085 7.49809C14.151 7.49809 15.0182 8.35034 15.0182 9.49559C15.0182 10.6408 14.1512 11.5113 13.0087 11.5113ZM8.99797 3.49634C9.27397 3.49634 9.49797 3.27234 9.49797 2.99634V0.496338C9.49797 0.220338 9.27397 -0.00366211 8.99797 -0.00366211C8.72197 -0.00366211 8.49797 0.220338 8.49797 0.496338V2.99634C8.49797 3.27259 8.72197 3.49634 8.99797 3.49634ZM2.99797 3.49634C3.27397 3.49634 3.49797 3.27234 3.49797 2.99634V0.496338C3.49797 0.220338 3.27397 -0.00366211 2.99797 -0.00366211C2.72197 -0.00366211 2.49797 0.220338 2.49797 0.496338V2.99634C2.49797 3.27259 2.72197 3.49634 2.99797 3.49634ZM5.99797 3.49634C6.27397 3.49634 6.49797 3.27234 6.49797 2.99634V0.496338C6.49797 0.220338 6.27397 -0.00366211 5.99797 -0.00366211C5.72197 -0.00366211 5.49797 0.220338 5.49797 0.496338V2.99634C5.49797 3.27259 5.72197 3.49634 5.99797 3.49634Z" fill="white"></path></g><defs><clipPath id="clip0_95_391"><rect width="16" height="16" fill="white"></rect></clipPath></defs></svg> 