<?xml version="1.0" encoding="UTF-8"?> <svg xmlns="http://www.w3.org/2000/svg" width="20" height="20" viewBox="0 0 20 20" fill="none"><path d="M17.2056 3.49923L6.56112 0.647048C5.22745 0.289693 3.85661 1.08115 3.49925 2.41481L0.647068 13.0593C0.289713 14.393 1.08117 15.7638 2.41484 16.1212L13.0593 18.9734C14.393 19.3307 15.7638 18.5393 16.1212 17.2056L18.9734 6.5611C19.3307 5.22743 18.5393 3.85659 17.2056 3.49923Z" stroke="white" stroke-linecap="round" stroke-linejoin="round"></path><path d="M12.3076 7.71508L8.69504 6.74709C8.26827 6.63274 7.8296 6.88601 7.71525 7.31278L6.74726 10.9253C6.63291 11.3521 6.88618 11.7908 7.31295 11.9051L10.9255 12.8731C11.3523 12.9875 11.791 12.7342 11.9053 12.3074L12.8733 8.69487C12.9876 8.2681 12.7344 7.82943 12.3076 7.71508Z" stroke="white" stroke-linecap="round" stroke-linejoin="round"></path></svg> 