<?xml version="1.0" encoding="UTF-8"?> <svg xmlns="http://www.w3.org/2000/svg" width="18" height="20" viewBox="0 0 18 20" fill="none"><path d="M17.5 8.78892V5.15392C17.5 4.32492 16.867 3.63292 16.047 3.50992C15.096 3.36792 13.867 3.13392 12.969 2.78793C12.062 2.43892 10.972 1.78092 10.207 1.28292C9.92198 1.09826 9.58962 1 9.25 1C8.91038 1 8.57802 1.09826 8.293 1.28292C7.529 1.78092 6.438 2.43892 5.531 2.78793C4.632 3.13392 3.404 3.36792 2.453 3.50992C1.633 3.63292 1 4.32492 1 5.15392V8.78892C0.999867 10.6251 1.49879 12.4267 2.44343 14.0012C3.38806 15.5757 4.74287 16.8639 6.363 17.7279L6.593 17.8509L8.555 18.7969C8.77177 18.9015 9.00934 18.9558 9.25 18.9558C9.49066 18.9558 9.72823 18.9015 9.945 18.7969L11.906 17.8509L12.136 17.7279C13.7563 16.864 15.1113 15.5759 16.0561 14.0014C17.001 12.4269 17.5 10.6252 17.5 8.78892Z" stroke="white" stroke-linecap="round" stroke-linejoin="round"></path><path d="M12.759 7.88184L8.68303 11.9578C8.6273 12.0136 8.56113 12.0579 8.48829 12.0881C8.41545 12.1183 8.33738 12.1338 8.25853 12.1338C8.17968 12.1338 8.1016 12.1183 8.02876 12.0881C7.95592 12.0579 7.88975 12.0136 7.83403 11.9578L5.74103 9.86784" stroke="white" stroke-linecap="round" stroke-linejoin="round"></path></svg> 