<?xml version="1.0" encoding="UTF-8"?> <svg xmlns="http://www.w3.org/2000/svg" width="20" height="20" viewBox="0 0 20 20" fill="none"><path d="M9.32297 14.783V10.919M9.32297 10.919V7.982C9.32297 7.283 9.89297 6.717 10.595 6.717C11.297 6.717 11.867 7.283 11.867 7.982M9.32297 10.919L8.18097 11.281C7.71822 11.4278 7.31088 11.7115 7.01273 12.0947C6.71457 12.4778 6.53962 12.9424 6.51097 13.427L6.49897 13.628C6.45511 14.3827 6.5659 15.1384 6.82454 15.8488C7.08318 16.5592 7.48422 17.2092 8.00306 17.759C8.5219 18.3089 9.1476 18.7469 9.84178 19.0463C10.536 19.3456 11.284 19.5 12.04 19.5H14.35C15.7158 19.5 17.0258 18.9574 17.9916 17.9916C18.9574 17.0258 19.5 15.7159 19.5 14.35V9.699C19.5 9 18.93 8.433 18.228 8.433C17.526 8.433 16.956 8.999 16.956 9.699M11.867 10.475V6.265C11.867 5.567 12.437 5 13.139 5C13.841 5 14.411 5.567 14.411 6.266V7.982M14.411 7.982V10.475M14.411 7.982C14.4203 7.65069 14.5584 7.33606 14.796 7.105C15.0337 6.87394 15.352 6.74468 15.6835 6.74468C16.0149 6.74468 16.3333 6.87394 16.5709 7.105C16.8085 7.33606 16.9467 7.65069 16.956 7.982V9.699M16.956 9.699V10.475" stroke="white" stroke-linecap="round" stroke-linejoin="round"></path><path d="M4 15.5C3.20435 15.5 2.44129 15.1839 1.87868 14.6213C1.31607 14.0587 1 13.2956 1 12.5V4C1 3.20435 1.31607 2.44129 1.87868 1.87868C2.44129 1.31607 3.20435 1 4 1H12.5C13.2091 0.999773 13.8954 1.25075 14.4371 1.7084C14.9788 2.16605 15.3408 2.80079 15.459 3.5" stroke="white" stroke-linecap="round" stroke-linejoin="round"></path></svg> 