<?xml version="1.0" encoding="UTF-8"?> <svg xmlns="http://www.w3.org/2000/svg" width="19" height="19" viewBox="0 0 19 19" fill="none"><g clip-path="url(#clip0_98_405)"><mask id="mask0_98_405" style="mask-type:luminance" maskUnits="userSpaceOnUse" x="0" y="0" width="19" height="19"><path d="M0 0H19V19H0V0Z" fill="white"></path></mask><g mask="url(#mask0_98_405)"><path d="M9.5 14.25C10.7598 14.25 11.968 13.7496 12.8588 12.8588C13.7496 11.968 14.25 10.7598 14.25 9.5C14.25 8.24022 13.7496 7.03204 12.8588 6.14124C11.968 5.25045 10.7598 4.75 9.5 4.75C8.24022 4.75 7.03204 5.25045 6.14124 6.14124C5.25045 7.03204 4.75 8.24022 4.75 9.5C4.75 10.7598 5.25045 11.968 6.14124 12.8588C7.03204 13.7496 8.24022 14.25 9.5 14.25Z" stroke="white" stroke-width="1.1875" stroke-miterlimit="10"></path><path d="M2.37502 9.50008H0.791687M18.2084 9.50008H16.625M9.50002 16.6251V18.2084M9.50002 0.791748V2.37508M4.46185 14.5382L3.34244 15.6577M15.6576 3.3425L14.5382 4.46191M4.46185 4.46191L3.34244 3.3425M15.6576 15.6577L14.5382 14.5382M14.25 9.50008C14.25 10.7599 13.7496 11.968 12.8588 12.8588C11.968 13.7496 10.7598 14.2501 9.50002 14.2501C8.24024 14.2501 7.03206 13.7496 6.14126 12.8588C5.25047 11.968 4.75002 10.7599 4.75002 9.50008C4.75002 8.2403 5.25047 7.03212 6.14126 6.14132C7.03206 5.25053 8.24024 4.75008 9.50002 4.75008C10.7598 4.75008 11.968 5.25053 12.8588 6.14132C13.7496 7.03212 14.25 8.2403 14.25 9.50008Z" stroke="white" stroke-width="1.1875" stroke-miterlimit="10" stroke-linecap="round"></path></g></g><defs><clipPath id="clip0_98_405"><rect width="19" height="19" fill="white"></rect></clipPath></defs></svg> 