<?xml version="1.0" encoding="UTF-8"?> <svg xmlns="http://www.w3.org/2000/svg" width="17" height="15" viewBox="0 0 17 15" fill="none"><path fill-rule="evenodd" clip-rule="evenodd" d="M4.62297 2.85621C3.93174 3.53726 3.40336 4.36571 3.07729 5.27966C2.75123 6.19361 2.63592 7.16943 2.73997 8.13421C2.74966 8.26381 2.70851 8.39208 2.62524 8.49185C2.54197 8.59162 2.42312 8.65506 2.29389 8.66871C2.16465 8.68236 2.03518 8.64516 1.9329 8.56499C1.83062 8.48481 1.76358 8.36797 1.74597 8.23921C1.62595 7.12491 1.75923 5.99788 2.13585 4.94231C2.51247 3.88673 3.1227 2.92988 3.92097 2.14321C6.85797 -0.753788 11.596 -0.706788 14.503 2.24121C17.41 5.18921 17.391 9.92621 14.453 12.8232C13.0928 14.1663 11.2673 14.9335 9.35597 14.9652C8.63331 14.9785 7.91252 14.8872 7.21597 14.6942C7.08814 14.6589 6.97955 14.5743 6.9141 14.459C6.84865 14.3437 6.8317 14.207 6.86697 14.0792C6.90225 13.9514 6.98686 13.8428 7.10219 13.7773C7.21753 13.7119 7.35414 13.6949 7.48197 13.7302C8.08607 13.8976 8.71121 13.9768 9.33797 13.9652C10.993 13.9392 12.574 13.275 13.751 12.1112C16.292 9.60521 16.313 5.50121 13.791 2.94321C11.269 0.385212 7.16397 0.350212 4.62297 2.85621Z" fill="white"></path><path fill-rule="evenodd" clip-rule="evenodd" d="M2.613 8.76932C2.56927 8.8183 2.51632 8.85819 2.45718 8.88671C2.39803 8.91524 2.33384 8.93183 2.26828 8.93554C2.20273 8.93925 2.13708 8.93002 2.07509 8.90836C2.0131 8.8867 1.95598 8.85305 1.907 8.80932L0.187 7.27932C0.134126 7.23687 0.0904368 7.18412 0.0585892 7.12426C0.0267417 7.0644 0.00740118 6.99869 0.00174367 6.93112C-0.00391384 6.86356 0.00422982 6.79555 0.0256796 6.73123C0.0471293 6.66691 0.081437 6.60762 0.126516 6.55697C0.171596 6.50633 0.226505 6.46538 0.287906 6.43662C0.349306 6.40786 0.415915 6.39188 0.483681 6.38967C0.551448 6.38746 0.618957 6.39905 0.682103 6.42375C0.745249 6.44844 0.802712 6.48572 0.851 6.53332L2.571 8.06332C2.62013 8.10691 2.66018 8.15975 2.68888 8.21883C2.71758 8.2779 2.73436 8.34205 2.73826 8.40761C2.74216 8.47318 2.7331 8.53886 2.71161 8.60093C2.69012 8.66299 2.65661 8.72021 2.613 8.76932Z" fill="white"></path><path fill-rule="evenodd" clip-rule="evenodd" d="M1.83902 8.70625C1.87841 8.75878 1.92777 8.80303 1.98427 8.83649C2.04077 8.86994 2.1033 8.89194 2.16831 8.90123C2.23331 8.91051 2.2995 8.9069 2.36311 8.89061C2.42671 8.87431 2.48649 8.84565 2.53902 8.80625L4.53902 7.30625C4.6451 7.22668 4.71524 7.10824 4.73399 6.97696C4.75274 6.84569 4.71858 6.71234 4.63902 6.60625C4.55945 6.50016 4.441 6.43003 4.30973 6.41127C4.17845 6.39252 4.0451 6.42669 3.93902 6.50625L1.93902 8.00625C1.83293 8.08582 1.76279 8.20426 1.74404 8.33554C1.72529 8.46681 1.75945 8.60016 1.83902 8.70625ZM9.01902 3.90625C9.15162 3.90625 9.2788 3.95893 9.37257 4.0527C9.46634 4.14646 9.51902 4.27364 9.51902 4.40625V7.90625C9.51902 8.03886 9.46634 8.16604 9.37257 8.2598C9.2788 8.35357 9.15162 8.40625 9.01902 8.40625C8.88641 8.40625 8.75923 8.35357 8.66546 8.2598C8.57169 8.16604 8.51902 8.03886 8.51902 7.90625V4.40625C8.51902 4.27364 8.57169 4.14646 8.66546 4.0527C8.75923 3.95893 8.88641 3.90625 9.01902 3.90625Z" fill="white"></path><path fill-rule="evenodd" clip-rule="evenodd" d="M12.519 7.90625C12.519 8.03886 12.4663 8.16604 12.3725 8.2598C12.2788 8.35357 12.1516 8.40625 12.019 8.40625H9.01898C8.88637 8.40625 8.7592 8.35357 8.66543 8.2598C8.57166 8.16604 8.51898 8.03886 8.51898 7.90625C8.51898 7.77364 8.57166 7.64646 8.66543 7.5527C8.7592 7.45893 8.88637 7.40625 9.01898 7.40625H12.019C12.1516 7.40625 12.2788 7.45893 12.3725 7.5527C12.4663 7.64646 12.519 7.77364 12.519 7.90625Z" fill="white"></path></svg> 