<?xml version="1.0" encoding="UTF-8"?> <svg xmlns="http://www.w3.org/2000/svg" width="19" height="18" viewBox="0 0 19 18" fill="none"><path d="M1.14569 1.06477C0.94932 0.86891 0.949116 0.550884 1.14523 0.354771V0.354771C1.34116 0.158836 1.65884 0.158836 1.85477 0.354771L17.895 16.395C18.0911 16.5911 18.0911 16.9089 17.895 17.105V17.105C17.6989 17.3011 17.3811 17.3011 17.185 17.105L15.3 15.22C14.4686 15.7036 13.5364 16.036 12.5401 16.1868C12.2506 16.2306 12 15.9989 12 15.7061V15.7061C12 15.4477 12.1973 15.2337 12.4524 15.1927C13.1917 15.0737 13.9073 14.8332 14.57 14.48L13.06 12.97C13.0344 12.9798 13.0087 12.9893 12.983 12.9985C12.4753 13.1806 12 12.7493 12 12.21V12.21C12.09 12.2 12.17 12.19 12.25 12.17L10 9.91V16.25H8L4 12.25H0V5.25H4L4.67 4.58L1.14569 1.06477ZM19 8.75C19 10.5943 18.3314 12.2817 17.2268 13.5874C17.0441 13.8033 16.7171 13.8024 16.52 13.5997V13.5997C16.3307 13.405 16.3324 13.0962 16.5065 12.8878C17.472 11.7311 18.0041 10.267 18 8.75C18 5.33 15.36 2.52 12 2.25V1.25C15.91 1.52 19 4.78 19 8.75ZM16 8.75C16 9.76506 15.6637 10.7014 15.094 11.4562C14.9238 11.6817 14.5957 11.6833 14.3973 11.4821V11.4821C14.2088 11.291 14.2083 10.987 14.3626 10.7674C14.7625 10.1982 15 9.49721 15 8.75C15 6.99 13.7 5.53 12 5.29V4.28C14.25 4.53 16 6.43 16 8.75ZM13 8.75C13 8.88611 12.9811 9.01816 12.9462 9.14515C12.8511 9.49105 12.4149 9.5179 12.1652 9.26037V9.26037C12.0593 9.15111 12 9.00488 12 8.85268V7.34C12.58 7.54 13 8.1 13 8.75ZM4.41 6.25H1V11.25H4.41L8.41 15.25H9V8.91L5.38 5.29L4.41 6.25ZM8 1.25H10V5.88289C10 6.32834 9.46143 6.55143 9.14645 6.23645V6.23645C9.05268 6.14268 9 6.0155 9 5.88289V2.25H8.41L7.14445 3.52336C6.94887 3.72015 6.63064 3.72064 6.43445 3.52445V3.52445C6.23869 3.32869 6.23869 3.01131 6.43445 2.81555L8 1.25Z" fill="white"></path></svg> 