<?xml version="1.0" encoding="UTF-8"?> <svg xmlns="http://www.w3.org/2000/svg" width="19" height="18" viewBox="0 0 19 18" fill="none"><path d="M0.79 0.71L1.5 0L18.25 16.75L17.54 17.46L15.3 15.22C14.32 15.79 13.2 16.15 12 16.25V15.25C12.8993 15.1666 13.773 14.9048 14.57 14.48L13.06 12.97C12.72 13.1 12.37 13.18 12 13.22V12.21C12.09 12.2 12.17 12.19 12.25 12.17L10 9.91V16.25H8L4 12.25H0V5.25H4L4.67 4.58L0.79 0.71ZM19 8.75C19 10.78 18.19 12.62 16.88 13.97L16.18 13.25C17.3513 12.0454 18.0046 10.4302 18 8.75C18 5.33 15.36 2.52 12 2.25V1.25C15.91 1.52 19 4.78 19 8.75ZM16 8.75C16 9.95 15.53 11.04 14.76 11.85L14.06 11.14C14.64 10.52 15 9.67 15 8.75C15 6.99 13.7 5.53 12 5.29V4.28C14.25 4.53 16 6.43 16 8.75ZM13 8.75C13 9.12 12.86 9.46 12.64 9.75L12 9.09V7.34C12.58 7.54 13 8.1 13 8.75ZM4.41 6.25H1V11.25H4.41L8.41 15.25H9V8.91L5.38 5.29L4.41 6.25ZM8 1.25H10V7.09L9 6.09V2.25H8.41L6.79 3.88L6.08 3.17L8 1.25Z" fill="white"></path></svg> 