<svg width="404" height="304" viewBox="0 0 404 304" fill="none" xmlns="http://www.w3.org/2000/svg">
<rect width="403.872" height="304" fill="#BDC8E4"/>
<path d="M159.308 206.564C155.958 206.564 153.092 205.373 150.709 202.989C148.326 200.606 147.132 197.738 147.128 194.385V109.128C147.128 105.779 148.322 102.913 150.709 100.53C153.096 98.1464 155.962 96.9528 159.308 96.9487H244.564C247.913 96.9487 250.782 98.1423 253.169 100.53C255.556 102.917 256.748 105.783 256.744 109.128V194.385C256.744 197.734 255.552 200.602 253.169 202.989C250.786 205.377 247.917 206.568 244.564 206.564H159.308ZM165.397 182.205H238.474L215.638 151.756L197.369 176.115L183.667 157.846L165.397 182.205Z" fill="#E7EEFF"/>
</svg>
